# Wavefront OBJ file written 2025-12-08T12:42:43
o engine2D

# points : 1357
# faces  : 1242
# zones  : 1
#   0  zone0  (nFaces: 1242)

# <points count="1357">
v 0 -2.44929e-19 -0.004
v -0.0381262 -2.44929e-19 -0.004
v -0.0381262 3.06162e-19 0.005
v -0.0281262 3.06162e-19 0.005
v -0.0331976 9.72106e-19 0.0158757
v -0.028666 1.1015e-18 0.0179888
v -0.0328922 1.65645e-18 0.0270519
v -0.0238291 1.91523e-18 0.031278
v -0.019603 1.36028e-18 0.022215
v -0.0150714 1.48967e-18 0.0243281
v -0.01 8.23722e-19 0.0134524
v 0 8.23722e-19 0.0134524
v 0.01 8.23722e-19 0.0134524
v 0.0150714 1.48967e-18 0.0243281
v 0.019603 1.36028e-18 0.022215
v 0.0238291 1.91523e-18 0.031278
v 0.0328922 1.65645e-18 0.0270519
v 0.028666 1.1015e-18 0.0179888
v 0.0331976 9.72106e-19 0.0158757
v 0.0281262 3.06162e-19 0.005
v 0.0381262 3.06162e-19 0.005
v 0.0381262 -2.44929e-19 -0.004
v -0.0278208 9.90507e-19 0.0161762
v -0.0187577 1.24929e-18 0.0204024
v -0.0257077 7.13026e-19 0.0116446
v -0.0166446 9.71806e-19 0.0158708
v 0.0187577 1.24929e-18 0.0204024
v 0.0166446 9.71806e-19 0.0158708
v 0.0257077 7.13026e-19 0.0116446
v 0.0278208 9.90507e-19 0.0161762
v -0.00190631 -2.44929e-19 -0.004
v -0.00381262 -2.44929e-19 -0.004
v -0.00571892 -2.44929e-19 -0.004
v -0.00762523 -2.44929e-19 -0.004
v -0.00953154 -2.44929e-19 -0.004
v -0.0114378 -2.44929e-19 -0.004
v -0.0133442 -2.44929e-19 -0.004
v -0.0152505 -2.44929e-19 -0.004
v -0.0171568 -2.44929e-19 -0.004
v -0.0190631 -2.44929e-19 -0.004
v -0.0209694 -2.44929e-19 -0.004
v -0.0228757 -2.44929e-19 -0.004
v -0.024782 -2.44929e-19 -0.004
v -0.0266883 -2.44929e-19 -0.004
v -0.0285946 -2.44929e-19 -0.004
v -0.0305009 -2.44929e-19 -0.004
v -0.0324072 -2.44929e-19 -0.004
v -0.0343135 -2.44929e-19 -0.004
v -0.0362198 -2.44929e-19 -0.004
v -0.0381262 -1.76043e-19 -0.002875
v -0.0381262 -1.07157e-19 -0.00175
v -0.0381262 -3.82702e-20 -0.000625
v -0.0381262 3.06162e-20 0.0005
v -0.0381262 9.95026e-20 0.001625
v -0.0381262 1.68389e-19 0.00275
v -0.0381262 2.37275e-19 0.003875
v -0.0293762 3.06162e-19 0.005
v -0.0306262 3.06162e-19 0.005
v -0.0318762 3.06162e-19 0.005
v -0.0331262 3.06162e-19 0.005
v -0.0343762 3.06162e-19 0.005
v -0.0356262 3.06162e-19 0.005
v -0.0368762 3.06162e-19 0.005
v -0.0287601 3.89405e-19 0.00635946
v -0.029394 4.72648e-19 0.00771892
v -0.0300279 5.55891e-19 0.00907839
v -0.0306619 6.39131e-19 0.0104378
v -0.0312958 7.22376e-19 0.0117973
v -0.0319297 8.05622e-19 0.0131568
v -0.0325636 8.88861e-19 0.0145162
v -0.0297989 1.06915e-18 0.0174605
v -0.0309318 1.0368e-18 0.0169322
v -0.0320647 1.00446e-18 0.016404
v -0.0291943 1.17087e-18 0.0191217
v -0.0297226 1.24024e-18 0.0202546
v -0.0302509 1.3096e-18 0.0213874
v -0.0307791 1.37897e-18 0.0225203
v -0.0313074 1.44834e-18 0.0236532
v -0.0318357 1.51771e-18 0.0247861
v -0.0323639 1.58708e-18 0.025919
v -0.0317593 1.68879e-18 0.0275801
v -0.0306264 1.72114e-18 0.0281084
v -0.0294936 1.75349e-18 0.0286367
v -0.0283607 1.78584e-18 0.029165
v -0.0272278 1.81818e-18 0.0296932
v -0.0260949 1.85053e-18 0.0302215
v -0.024962 1.88288e-18 0.0307498
v -0.0201312 1.42965e-18 0.0233479
v -0.0206595 1.49901e-18 0.0244807
v -0.0211878 1.56838e-18 0.0256136
v -0.021716 1.63775e-18 0.0267465
v -0.0222443 1.70712e-18 0.0278794
v -0.0227726 1.77649e-18 0.0290123
v -0.0233009 1.84586e-18 0.0301452
v -0.0162043 1.45732e-18 0.0237998
v -0.0173372 1.42497e-18 0.0232715
v -0.0184701 1.39262e-18 0.0227432
v -0.0106339 9.06961e-19 0.0148118
v -0.0112679 9.90207e-19 0.0161713
v -0.0119018 1.07345e-18 0.0175308
v -0.0125357 1.15669e-18 0.0188902
v -0.0131696 1.23994e-18 0.0202497
v -0.0138036 1.32318e-18 0.0216091
v -0.0144375 1.40642e-18 0.0229686
v -0.00125 8.23722e-19 0.0134524
v -0.0025 8.23722e-19 0.0134524
v -0.00375 8.23722e-19 0.0134524
v -0.005 8.23722e-19 0.0134524
v -0.00625 8.23722e-19 0.0134524
v -0.0075 8.23722e-19 0.0134524
v -0.00875 8.23722e-19 0.0134524
v 0.00125 8.23722e-19 0.0134524
v 0.0025 8.23722e-19 0.0134524
v 0.00375 8.23722e-19 0.0134524
v 0.005 8.23722e-19 0.0134524
v 0.00625 8.23722e-19 0.0134524
v 0.0075 8.23722e-19 0.0134524
v 0.00875 8.23722e-19 0.0134524
v 0.0106339 9.06961e-19 0.0148118
v 0.0112679 9.90207e-19 0.0161713
v 0.0119018 1.07345e-18 0.0175308
v 0.0125357 1.15669e-18 0.0188902
v 0.0131696 1.23994e-18 0.0202497
v 0.0138036 1.32318e-18 0.0216091
v 0.0144375 1.40642e-18 0.0229686
v 0.0162043 1.45732e-18 0.0237998
v 0.0173372 1.42497e-18 0.0232715
v 0.0184701 1.39262e-18 0.0227432
v 0.0201312 1.42965e-18 0.0233479
v 0.0206595 1.49901e-18 0.0244807
v 0.0211878 1.56838e-18 0.0256136
v 0.021716 1.63775e-18 0.0267465
v 0.0222443 1.70712e-18 0.0278794
v 0.0227726 1.77649e-18 0.0290123
v 0.0233009 1.84586e-18 0.0301452
v 0.0317593 1.68879e-18 0.0275801
v 0.0306264 1.72114e-18 0.0281084
v 0.0294936 1.75349e-18 0.0286367
v 0.0283607 1.78584e-18 0.029165
v 0.0272278 1.81818e-18 0.0296932
v 0.0260949 1.85053e-18 0.0302215
v 0.024962 1.88288e-18 0.0307498
v 0.0291943 1.17087e-18 0.0191217
v 0.0297226 1.24024e-18 0.0202546
v 0.0302509 1.3096e-18 0.0213874
v 0.0307791 1.37897e-18 0.0225203
v 0.0313074 1.44834e-18 0.0236532
v 0.0318357 1.51771e-18 0.0247861
v 0.0323639 1.58708e-18 0.025919
v 0.0297989 1.06915e-18 0.0174605
v 0.0309318 1.0368e-18 0.0169322
v 0.0320647 1.00446e-18 0.016404
v 0.0287601 3.89405e-19 0.00635946
v 0.029394 4.72648e-19 0.00771892
v 0.0300279 5.55891e-19 0.00907839
v 0.0306619 6.39131e-19 0.0104378
v 0.0312958 7.22376e-19 0.0117973
v 0.0319297 8.05622e-19 0.0131568
v 0.0325636 8.88861e-19 0.0145162
v 0.0293762 3.06162e-19 0.005
v 0.0306262 3.06162e-19 0.005
v 0.0318762 3.06162e-19 0.005
v 0.0331262 3.06162e-19 0.005
v 0.0343762 3.06162e-19 0.005
v 0.0356262 3.06162e-19 0.005
v 0.0368762 3.06162e-19 0.005
v 0.0381262 -1.76043e-19 -0.002875
v 0.0381262 -1.07157e-19 -0.00175
v 0.0381262 -3.82702e-20 -0.000625
v 0.0381262 3.06162e-20 0.0005
v 0.0381262 9.95026e-20 0.001625
v 0.0381262 1.68389e-19 0.00275
v 0.0381262 2.37275e-19 0.003875
v 0.00190631 -2.44929e-19 -0.004
v 0.00381262 -2.44929e-19 -0.004
v 0.00571892 -2.44929e-19 -0.004
v 0.00762523 -2.44929e-19 -0.004
v 0.00953154 -2.44929e-19 -0.004
v 0.0114378 -2.44929e-19 -0.004
v 0.0133442 -2.44929e-19 -0.004
v 0.0152505 -2.44929e-19 -0.004
v 0.0171568 -2.44929e-19 -0.004
v 0.0190631 -2.44929e-19 -0.004
v 0.0209694 -2.44929e-19 -0.004
v 0.0228757 -2.44929e-19 -0.004
v 0.024782 -2.44929e-19 -0.004
v 0.0266883 -2.44929e-19 -0.004
v 0.0285946 -2.44929e-19 -0.004
v 0.0305009 -2.44929e-19 -0.004
v 0.0324072 -2.44929e-19 -0.004
v 0.0343135 -2.44929e-19 -0.004
v 0.0362198 -2.44929e-19 -0.004
v -0.0266879 1.02285e-18 0.0167044
v -0.025555 1.0552e-18 0.0172327
v -0.0244221 1.08755e-18 0.017761
v -0.0232893 1.1199e-18 0.0182893
v -0.0221564 1.15224e-18 0.0188175
v -0.0210235 1.18459e-18 0.0193458
v -0.0198906 1.21694e-18 0.0198741
v -0.026236 7.82396e-19 0.0127775
v -0.0267643 8.51766e-19 0.0139104
v -0.0272925 9.21136e-19 0.0150433
v -0.0177775 9.39457e-19 0.0153425
v -0.0189104 9.07114e-19 0.0148143
v -0.0200433 8.74765e-19 0.014286
v -0.0211762 8.42416e-19 0.0137577
v -0.0223091 8.10067e-19 0.0132294
v -0.0234419 7.77724e-19 0.0127012
v -0.0245748 7.45375e-19 0.0121729
v -0.0182294 1.17992e-18 0.0192695
v -0.0177012 1.11055e-18 0.0181366
v -0.0171729 1.04118e-18 0.0170037
v 0.0182294 1.17992e-18 0.0192695
v 0.0177012 1.11055e-18 0.0181366
v 0.0171729 1.04118e-18 0.0170037
v 0.0177775 9.39457e-19 0.0153425
v 0.0189104 9.07114e-19 0.0148143
v 0.0200433 8.74765e-19 0.014286
v 0.0211762 8.42416e-19 0.0137577
v 0.0223091 8.10067e-19 0.0132294
v 0.0234419 7.77724e-19 0.0127012
v 0.0245748 7.45375e-19 0.0121729
v 0.026236 7.82396e-19 0.0127775
v 0.0267643 8.51766e-19 0.0139104
v 0.0272925 9.21136e-19 0.0150433
v 0.0266879 1.02285e-18 0.0167044
v 0.025555 1.0552e-18 0.0172327
v 0.0244221 1.08755e-18 0.017761
v 0.0232893 1.1199e-18 0.0182893
v 0.0221564 1.15224e-18 0.0188175
v 0.0210235 1.18459e-18 0.0193458
v 0.0198906 1.21694e-18 0.0198741
v -0.0209223 5.2209e-19 0.00852637
v 0.0211769 5.3151e-19 0.00868022
v 0.003715 5.19818e-19 0.00848927
v -0.00727627 5.3564e-19 0.00874767
v 0.0114384 8.10073e-20 0.00132295
v -0.0122335 5.7165e-19 0.00933575
v 0.0241709 1.35333e-18 0.0221016
v -0.0241732 1.35363e-18 0.0221064
v -0.0100162 2.38017e-19 0.00388712
v -0.00443195 1.84506e-19 0.00301321
v -0.0161462 2.50699e-19 0.00409423
v 0.0173894 1.37725e-19 0.00224922
v 0.00538207 1.67321e-19 0.00273256
v 0.0155341 4.58693e-19 0.00749103
v 0.00963027 4.95603e-19 0.00809381
v -0.0021511 5.2917e-19 0.00864201
v -0.0168026 6.53882e-19 0.0106787
v -0.0225653 1.37287e-19 0.00224206
v -0.0274843 1.30046e-18 0.0212382
v 0.0274626 1.29958e-18 0.0212237
v 0.0228964 2.06642e-19 0.00337472
v 0.0270745 -4.0962e-21 -6.68961e-05
v 0.01467 7.40752e-19 0.0120974
v -0.0274954 -5.65132e-21 -9.22931e-05
v 0.0264414 1.55583e-18 0.0254087
v -0.0264409 1.55613e-18 0.0254136
v 0.0311545 8.58796e-20 0.00140252
v -0.0313105 7.63537e-20 0.00124695
v 0.0181561 6.79906e-19 0.0111037
v 0.0285951 8.04195e-19 0.0131335
v -0.0285755 8.03742e-19 0.0131261
v -0.0159275 1.16551e-18 0.0190343
v 0.0160562 1.17011e-18 0.0191093
v -0.0142348 8.18768e-19 0.0133715
v 0.025183 4.69756e-19 0.0076717
v -0.0249311 4.64575e-19 0.00758708
v 0.00043244 3.11049e-19 0.00507982
v -0.0342471 -4.81058e-20 -0.000785628
v 0.034203 -4.19645e-20 -0.000685332
v -0.0299849 9.19214e-19 0.0150119
v 0.0300014 9.17903e-19 0.0149905
v 0.0163495 1.30378e-18 0.0212924
v -0.0164489 1.3049e-18 0.0213106
v 0.0350576 1.55428e-19 0.00253833
v -0.0352558 1.43771e-19 0.00234796
v -0.0124187 1.15373e-20 0.000188418
v -0.0261566 1.16757e-18 0.0190679
v 0.0261484 1.16833e-18 0.0190803
v 0.00661336 5.10485e-19 0.00833685
v 0.00692548 6.702e-19 0.0109452
v 0.00416789 6.72484e-19 0.0109825
v 0.00645837 3.41129e-19 0.00557106
v 0.00362947 3.69401e-19 0.00603278
v 0.0267088 1.09611e-18 0.0179008
v 0.0248144 1.15181e-18 0.0188105
v -0.0248076 1.15122e-18 0.0188009
v -0.0267056 1.09496e-18 0.017882
v -0.00330992 -1.06283e-20 -0.000173574
v -0.0058648 -5.39041e-21 -8.80321e-05
v 0.000276178 3.53592e-20 0.00057746
v -0.00171781 2.30641e-19 0.00376665
v -0.0196702 1.71511e-19 0.00280099
v -0.0190311 -3.49618e-20 -0.000570969
v -0.0156031 -5.50853e-21 -8.99611e-05
v -0.00782748 1.96165e-19 0.00320362
v -0.00909401 -3.62758e-21 -5.92429e-05
v 0.00963342 6.5995e-19 0.0107778
v 0.0297181 9.92454e-19 0.016208
v 0.0310559 9.05106e-19 0.0147815
v -0.031029 9.05957e-19 0.0147954
v -0.0297085 9.92895e-19 0.0162152
v -0.0175884 1.3396e-18 0.0218773
v -0.0156105 1.34614e-18 0.0219841
v 0.0157491 1.36437e-18 0.0222818
v 0.017574 1.32348e-18 0.0216141
v -0.0165357 4.86328e-19 0.00794234
v -0.0188554 5.74254e-19 0.00937828
v -0.0187789 4.27067e-19 0.00697453
v 0.0124879 7.83517e-19 0.0127958
v 0.0134171 9.25325e-19 0.0151117
v 0.0154775 8.64417e-19 0.014117
v 0.014704 1.03581e-18 0.0169161
v -0.0251674 1.72574e-18 0.0281834
v -0.024135 1.60263e-18 0.0261729
v 0.024137 1.60237e-18 0.0261687
v 0.0251664 1.7257e-18 0.0281828
v -0.0220958 1.3708e-18 0.0223869
v -0.0235518 1.24822e-18 0.020385
v -0.0214886 1.2729e-18 0.020788
v 0.0235442 1.24858e-18 0.0203909
v 0.0220909 1.37096e-18 0.0223894
v 0.0214793 1.27295e-18 0.0207888
v 0.0358026 -1.25363e-19 -0.00204734
v 0.0327075 -1.39498e-19 -0.00227818
v -0.0330271 -1.31421e-19 -0.00214626
v -0.0360329 -1.30386e-19 -0.00212937
v -0.0274858 1.66772e-18 0.0272359
v 0.0274863 1.66753e-18 0.0272329
v 0.017155 1.19668e-18 0.0195432
v 0.0161317 1.09783e-18 0.0179289
v -0.0162272 1.07915e-18 0.0176239
v -0.016997 1.18466e-18 0.019347
v -0.0281609 8.74508e-19 0.0142818
v -0.0273718 7.65949e-19 0.0125089
v 0.0273642 7.6571e-19 0.012505
v 0.0281454 8.66431e-19 0.0141499
v 0.0182783 4.74962e-19 0.00775671
v 0.0166132 2.98262e-19 0.00487098
v 0.0194524 3.32302e-19 0.0054269
v 0.00255487 2.22608e-19 0.00363546
v 0.00410171 -2.55294e-20 -0.000416926
v 0.0148437 1.25749e-18 0.0205364
v -0.0147557 1.23982e-18 0.0202478
v 0.0302749 7.96737e-19 0.0130117
v -0.0302718 7.98023e-19 0.0130327
v 0.0297056 1.5971e-18 0.0260827
v 0.0285883 1.48409e-18 0.024237
v -0.0285972 1.48426e-18 0.0242398
v -0.029705 1.59731e-18 0.026086
v -0.0222966 -5.73049e-20 -0.00093586
v 0.0289163 1.34433e-18 0.0219545
v 0.0280994 1.23686e-18 0.0201994
v -0.0281216 1.23721e-18 0.0202051
v -0.0289325 1.34461e-18 0.0219591
v -0.0212903 3.46434e-19 0.0056577
v 0.00957338 3.18573e-19 0.0052027
v 0.00848789 1.36658e-19 0.0022318
v -0.0146382 6.01607e-19 0.00982499
v -0.0139212 4.27236e-19 0.0069773
v 0.0234605 -5.6144e-21 -9.16901e-05
v 0.0201443 1.66262e-19 0.00271526
v 0.0199094 -3.12335e-20 -0.000510081
v -0.0131773 9.53884e-19 0.0155781
v -0.0120611 8.30035e-19 0.0135555
v -0.0230261 1.48354e-18 0.0242281
v 0.0230274 1.48333e-18 0.0242246
v 0.0277374 5.47191e-19 0.00893631
v 0.0268669 4.04342e-19 0.00660341
v -0.0265919 3.76272e-19 0.00614498
v -0.0276345 5.43101e-19 0.00886952
v -0.0134682 -9.16287e-20 -0.00149641
v -0.0138485 1.04834e-19 0.00171207
v 0.0256634 -8.60002e-20 -0.00140449
v 0.0260242 1.12635e-19 0.00183947
v 0.0128868 2.91564e-19 0.0047616
v 0.0148006 1.44379e-19 0.00235788
v -0.0237122 3.11446e-19 0.0050863
v -0.0254669 2.15162e-19 0.00351387
v -0.011096 1.36049e-19 0.00222185
v -0.0108174 -8.30555e-20 -0.0013564
v 0.016654 -4.35108e-20 -0.000710585
v 0.0137499 -1.68588e-20 -0.000275325
v 0.00992627 -5.56381e-20 -0.000908639
v 0.0223207 3.82735e-19 0.00625054
v 0.00740037 -4.82512e-20 -0.000788002
v 0.0122547 6.31771e-19 0.0103176
v 0.0195706 5.97258e-19 0.00975397
v 0.0170412 5.94088e-19 0.00970219
v -0.0154979 9.09068e-19 0.0148462
v -0.014731 1.03276e-18 0.0168663
v 0.0255523 6.004e-19 0.00980527
v 0.0277493 6.72141e-19 0.0109769
v -0.0255199 6.02419e-19 0.00983825
v -0.0277294 6.71535e-19 0.010967
v -0.0227445 4.92408e-19 0.00804163
v 0.0016729 3.91955e-19 0.00640111
v 0.0147615 6.03375e-19 0.00985386
v 0.0126305 4.71305e-19 0.00769699
v -0.0274618 1.45519e-19 0.0023765
v -0.0249667 4.02157e-20 0.000656772
v 0.0211263 6.85386e-19 0.0111932
v 0.0232867 5.95993e-19 0.00973331
v -0.0233032 6.33828e-19 0.0103512
v -0.0209861 6.78975e-19 0.0110885
v -0.0161005 1.24032e-18 0.020256
v -0.0147676 1.15732e-18 0.0189004
v 0.029417 8.601e-19 0.0140465
v 0.0292388 7.44885e-19 0.0121649
v -0.029408 8.60094e-19 0.0140464
v -0.029221 7.45118e-19 0.0121687
v 0.0160851 1.24164e-18 0.0202776
v 0.0148626 1.15441e-18 0.018853
v -0.0187902 7.0975e-19 0.0115911
v -0.0167476 8.12994e-19 0.0132772
v 0.0174742 1.25621e-18 0.0205154
v 0.0193871 1.30394e-18 0.021295
v -0.0174942 1.26575e-18 0.0206713
v -0.0194056 1.30598e-18 0.0213282
v 0.0288448 9.41472e-19 0.0153754
v 0.0282346 1.04518e-18 0.0170691
v -0.0288505 9.42764e-19 0.0153965
v -0.0282305 1.04507e-18 0.0170673
v -0.00364426 6.78656e-19 0.0110833
v -0.00111444 6.77358e-19 0.0110621
v 0.00147625 6.74615e-19 0.0110173
v -0.00867505 6.87076e-19 0.0112208
v -0.00617151 6.81289e-19 0.0111263
v -0.0111684 7.03707e-19 0.0114924
v -0.00987137 5.45356e-19 0.00890634
v 0.0251562 1.23205e-18 0.0201209
v 0.0266454 1.23093e-18 0.0201026
v 0.0258335 1.3195e-18 0.021549
v -0.0266503 1.23114e-18 0.0201061
v -0.0251596 1.23218e-18 0.0201231
v -0.0258395 1.32035e-18 0.021563
v -0.0274926 1.15255e-18 0.0188226
v 0.027495 1.15359e-18 0.0188395
v -0.0129201 2.51053e-19 0.0041
v -0.0110134 3.68718e-19 0.00602163
v -0.00516118 3.6996e-19 0.0060419
v -0.00788331 3.77982e-19 0.00617291
v 0.0173601 8.03815e-19 0.0131273
v 0.0196311 7.71797e-19 0.0126044
v -0.0252121 1.45466e-18 0.0237564
v 0.0252129 1.45403e-18 0.0237461
v 0.0270326 1.40225e-18 0.0229004
v -0.0270438 1.40288e-18 0.0229108
v -0.0364725 -1.81576e-20 -0.000296536
v 0.0362383 -1.10478e-20 -0.000180424
v 0.000667417 5.03778e-19 0.00822732
v -0.00469182 5.29782e-19 0.008652
v 0.0341292 2.28626e-19 0.00373375
v 0.0361605 2.01437e-19 0.00328971
v -0.0361922 1.96383e-19 0.00320718
v -0.0341512 2.21374e-19 0.00361531
v -0.00259226 3.81233e-19 0.00622601
v 0.0284933 -1.1437e-19 -0.0018678
v -0.0283483 -1.16575e-19 -0.00190381
v 0.0282502 1.62883e-19 0.00266008
v 0.02589 2.64425e-19 0.00431838
v 0.0162909 7.11789e-19 0.0116244
v -0.0131003 7.03811e-19 0.0114941
v 0.0303891 1.87918e-19 0.00306893
v 0.032375 1.85021e-19 0.00302162
v -0.0319239 1.69765e-19 0.00277248
v -0.0298134 1.70418e-19 0.00278313
v 0.0336665 9.96716e-20 0.00162776
v -0.036417 9.06055e-20 0.0014797
v 0.0363195 9.72027e-20 0.00158744
v -0.0335697 1.08354e-19 0.00176955
v -0.000733833 3.96081e-19 0.0064685
v 0.0235222 4.87009e-19 0.00795346
v 0.0351021 3.83326e-20 0.000626019
v 0.0327967 5.98097e-21 9.76767e-05
v 0.0244594 3.70025e-19 0.00604296
v -0.0350999 4.35565e-20 0.000711331
v -0.0325013 1.88735e-20 0.000308227
v -0.0155085 7.21868e-19 0.011789
v -0.029724 4.29059e-20 0.000700707
v 0.0290556 4.35257e-20 0.000710829
v 0.0311611 -4.78775e-20 -0.000781899
v -0.0308025 -8.83246e-20 -0.00144245
v 0.00515496 5.15388e-19 0.00841693
v 0.00529491 5.94014e-19 0.00970099
v 0.00388589 5.95995e-19 0.00973334
v 0.0067349 5.91276e-19 0.00965627
v 0.00556921 6.71137e-19 0.0109605
v 0.00813428 5.03801e-19 0.00822769
v 0.00817291 5.86453e-19 0.00957751
v 0.00589553 7.47671e-19 0.0122104
v 0.00457875 7.48143e-19 0.0122181
v 0.00603108 2.55304e-19 0.00416943
v 0.00496004 3.54693e-19 0.00579258
v 0.00455352 2.73902e-19 0.00447316
v 0.00658901 4.26398e-19 0.0069636
v 0.00510268 4.35357e-19 0.00710992
v 0.00812101 4.17385e-19 0.00681642
v 0.00371603 4.4371e-19 0.00724634
v 0.0270783 1.04592e-18 0.0170811
v 0.0261694 1.07585e-18 0.0175699
v 0.0260315 1.12791e-18 0.0184202
v 0.0253972 1.11153e-18 0.0181526
v 0.0265294 1.14154e-18 0.0186427
v 0.0254726 1.16732e-18 0.0190638
v 0.0242569 1.14168e-18 0.018645
v -0.0242493 1.14073e-18 0.0186296
v -0.0253891 1.11011e-18 0.0181294
v -0.0260397 1.127e-18 0.0184053
v -0.0261805 1.07555e-18 0.0175651
v -0.0255469 1.17193e-18 0.019139
v -0.0265369 1.13718e-18 0.0185716
v -0.0270783 1.04601e-18 0.0170826
v -0.00171512 -1.17605e-19 -0.00192064
v -0.00339347 -1.2049e-19 -0.00196775
v -0.00430462 -1.57569e-20 -0.00025733
v -0.00475066 -1.00644e-19 -0.00164364
v -0.00375756 8.68189e-20 0.00141786
v -0.00492006 5.15645e-20 0.000842112
v -0.00696125 -6.82018e-20 -0.00111382
v 0.000134029 -1.15262e-19 -0.00188237
v -0.00182621 3.20016e-21 5.22625e-05
v -0.000883198 1.47269e-19 0.00240508
v -0.00234955 1.10436e-19 0.00180355
v 0.000390499 2.0225e-19 0.003303
v -0.000537851 2.67649e-19 0.00437104
v -0.00303421 2.04308e-19 0.00333661
v -0.0181128 2.00729e-19 0.00327816
v -0.0176155 9.41147e-20 0.00153701
v -0.0160444 1.2504e-19 0.00204206
v -0.0192549 7.08617e-20 0.00115726
v -0.0173869 -2.0691e-20 -0.00033791
v -0.0211859 1.51361e-19 0.00247192
v -0.0208374 5.34741e-20 0.000873299
v -0.0172582 -1.35102e-19 -0.00220639
v -0.0155932 -1.38414e-19 -0.00226048
v -0.00829056 -1.15014e-19 -0.00187832
v -0.00660654 7.39044e-20 0.00120695
v -0.00795175 7.13332e-20 0.00116496
v -0.00606879 1.55043e-19 0.00253204
v -0.00915355 2.20304e-19 0.00359783
v -0.00944684 1.43366e-19 0.00234135
v 0.00720746 7.47053e-19 0.0122003
v 0.00830483 6.66183e-19 0.0108796
v 0.00850849 7.44714e-19 0.0121621
v 0.00959681 5.78063e-19 0.00944049
v 0.00979631 7.38297e-19 0.0120573
v 0.0293984 1.0447e-18 0.0170612
v 0.0303085 1.01334e-18 0.0165491
v 0.0302597 9.56247e-19 0.0156167
v 0.0312155 9.70539e-19 0.0158501
v 0.0297179 9.4029e-19 0.0153561
v 0.0305002 9.16911e-19 0.0149743
v 0.0320866 9.45666e-19 0.0154439
v -0.0320434 9.45721e-19 0.0154448
v -0.0311929 9.70006e-19 0.0158414
v -0.0302664 9.59768e-19 0.0156742
v -0.0302903 1.01273e-18 0.0165391
v -0.0303841 9.14597e-19 0.0149365
v -0.0297539 9.48599e-19 0.0154918
v -0.0293917 1.04412e-18 0.0170517
v -0.0184955 1.35897e-18 0.0221936
v -0.0174664 1.38081e-18 0.0225503
v -0.0167687 1.34167e-18 0.0219112
v -0.0163282 1.39562e-18 0.0227922
v -0.0169162 1.30598e-18 0.0213283
v -0.0161151 1.32764e-18 0.021682
v -0.0154548 1.42056e-18 0.0231995
v 0.0154381 1.42467e-18 0.0232666
v 0.0161098 1.40713e-18 0.0229802
v 0.016554 1.35101e-18 0.0220637
v 0.0172009 1.37191e-18 0.022405
v 0.0159008 1.31408e-18 0.0214606
v 0.0169704 1.32098e-18 0.0215732
v 0.0184358 1.35456e-18 0.0221217
v -0.0162604 3.94971e-19 0.00645036
v -0.0173088 4.55458e-19 0.00743819
v -0.0175426 3.41064e-19 0.00557
v -0.0180828 5.18049e-19 0.00846039
v -0.0188152 4.94174e-19 0.00807047
v -0.0170294 5.65645e-19 0.00923768
v -0.0181994 6.23259e-19 0.0101786
v -0.0195546 5.30334e-19 0.00866101
v -0.0201816 4.83307e-19 0.00789301
v 0.0113317 8.04146e-19 0.0131327
v 0.011786 8.81954e-19 0.0144034
v 0.0128984 8.55863e-19 0.0139773
v 0.01236 9.56945e-19 0.0156281
v 0.0136229 7.61302e-19 0.012433
v 0.0139774 8.29527e-19 0.0135472
v 0.0129915 1.02655e-18 0.0167648
v 0.0140387 9.85516e-19 0.0160947
v 0.0137207 1.08271e-18 0.017682
v 0.0144737 8.93104e-19 0.0145855
v 0.0150575 9.50497e-19 0.0155228
v 0.0150042 8.04134e-19 0.0131325
v 0.0160736 9.19048e-19 0.0150092
v 0.0156829 1.00087e-18 0.0163455
v -0.0244708 1.81721e-18 0.0296773
v -0.0239719 1.75147e-18 0.0286037
v -0.0246643 1.66358e-18 0.0271683
v -0.0234553 1.68584e-18 0.0275319
v -0.0258415 1.63872e-18 0.0267624
v -0.0252956 1.58123e-18 0.0258234
v -0.0229254 1.62077e-18 0.0264692
v 0.0229306 1.6207e-18 0.026468
v 0.0234595 1.68588e-18 0.0275325
v 0.0246628 1.66344e-18 0.027166
v 0.0239692 1.75142e-18 0.0286029
v 0.0253018 1.58103e-18 0.0258202
v 0.0258367 1.63844e-18 0.0267577
v 0.0244692 1.81716e-18 0.0296765
v -0.0209415 1.37413e-18 0.0224412
v -0.0217608 1.32031e-18 0.0215623
v -0.0206557 1.32915e-18 0.0217066
v -0.0228213 1.31109e-18 0.0214118
v -0.0225495 1.25892e-18 0.0205597
v -0.0231777 1.36361e-18 0.0222694
v -0.0238048 1.30163e-18 0.0212573
v -0.0233986 1.18494e-18 0.0193515
v -0.0223379 1.20592e-18 0.0196942
v 0.0233772 1.18546e-18 0.01936
v 0.0225384 1.25891e-18 0.0205596
v 0.0223294 1.20601e-18 0.0196956
v 0.0228131 1.31119e-18 0.0214134
v 0.021753 1.32053e-18 0.0215659
v 0.0238004 1.3018e-18 0.02126
v 0.0231743 1.3635e-18 0.0222677
v 0.0209376 1.37427e-18 0.0224436
v 0.020647 1.32889e-18 0.0217025
v 0.0367754 -1.85873e-19 -0.00303554
v 0.0351492 -1.83711e-19 -0.00300023
v 0.0345697 -1.13142e-19 -0.00184775
v 0.0337694 -1.68259e-19 -0.00274788
v 0.0351042 -5.90491e-20 -0.000964345
v 0.0335494 -8.80901e-20 -0.00143862
v 0.0319618 -1.77694e-19 -0.00290197
v -0.0320843 -1.79868e-19 -0.00293746
v -0.0334305 -1.81282e-19 -0.00296056
v -0.0344574 -1.3657e-19 -0.00223035
v -0.0354633 -1.70634e-19 -0.00278666
v -0.0335962 -9.64244e-20 -0.00157473
v -0.0354395 -8.16209e-20 -0.00133297
v -0.0368059 -1.8466e-19 -0.00301572
v -0.0279294 1.72645e-18 0.0281951
v -0.0267876 1.75786e-18 0.028708
v -0.0263263 1.69766e-18 0.0277249
v -0.0256304 1.78786e-18 0.029198
v -0.0269779 1.61009e-18 0.0262948
v 0.0256332 1.78796e-18 0.0291996
v 0.026327 1.69761e-18 0.027724
v 0.0267842 1.7577e-18 0.0287054
v 0.0269791 1.60984e-18 0.0262907
v 0.027926 1.72623e-18 0.0281915
v 0.017791 1.20833e-18 0.0197335
v 0.0173725 1.16684e-18 0.0190559
v 0.0167466 1.14299e-18 0.0186664
v 0.016843 1.09277e-18 0.0178463
v 0.0166734 1.18349e-18 0.0193279
v 0.0160908 1.1311e-18 0.0184723
v 0.0163486 1.03956e-18 0.0169773
v -0.0164109 1.04048e-18 0.0169924
v -0.0168488 1.10789e-18 0.0180932
v -0.0165748 1.14836e-18 0.0187542
v -0.0173566 1.15316e-18 0.0188326
v -0.016015 1.12589e-18 0.0183872
v -0.0163501 1.17209e-18 0.0191417
v -0.0177729 1.20558e-18 0.0196886
v -0.02791 9.17407e-19 0.0149824
v -0.0275079 8.63064e-19 0.0140949
v -0.0279476 8.2374e-19 0.0134527
v -0.0273133 8.10722e-19 0.0132401
v -0.0283886 8.28278e-19 0.0135268
v -0.0280457 7.83829e-19 0.0128009
v -0.0268069 7.51639e-19 0.0122752
v 0.0267924 7.51284e-19 0.0122694
v 0.0272925 8.1101e-19 0.0132448
v 0.027968 8.23722e-19 0.0134524
v 0.0275216 8.63168e-19 0.0140966
v 0.0280566 7.83964e-19 0.0128031
v 0.0284062 8.28235e-19 0.0135261
v 0.0279093 9.16146e-19 0.0149618
v 0.0197568 5.02222e-19 0.0082019
v 0.0188971 4.06971e-19 0.00664634
v 0.0202748 4.30242e-19 0.00702638
v 0.017495 3.9113e-19 0.00638763
v 0.0180521 3.15122e-19 0.00514634
v 0.0169146 4.62777e-19 0.00755772
v 0.0160295 3.80462e-19 0.00621342
v 0.0171376 2.16766e-19 0.00354005
v 0.018484 2.34643e-19 0.00383201
v 0.00388514 1.91079e-19 0.00312056
v 0.00307949 1.00688e-19 0.00164436
v 0.00467302 7.49447e-20 0.00122394
v 0.00160824 1.43028e-19 0.00233582
v 0.00240417 -4.31214e-21 -7.04226e-05
v 0.00138471 2.64504e-19 0.00431968
v 0.00204418 -1.22794e-19 -0.00200538
v 0.0140818 1.2476e-18 0.0203749
v 0.0145044 1.31609e-18 0.0214933
v 0.0150673 1.31602e-18 0.0214923
v 0.0150239 1.37974e-18 0.0225329
v 0.0154501 1.26643e-18 0.0206823
v -0.0150019 1.37126e-18 0.0223943
v -0.0151086 1.2934e-18 0.0211228
v -0.0144687 1.30626e-18 0.0213329
v -0.0157222 1.28425e-18 0.0209734
v -0.0140349 1.23996e-18 0.0202501
v 0.0317612 8.92725e-19 0.0145793
v 0.0307185 8.47694e-19 0.0138439
v 0.0312906 8.25951e-19 0.0134888
v 0.0302096 8.70589e-19 0.0142178
v 0.0307401 7.63035e-19 0.0124613
v -0.0307431 7.63384e-19 0.012467
v -0.0312982 8.27616e-19 0.013516
v -0.0307064 8.49795e-19 0.0138782
v -0.031748 8.94513e-19 0.0146085
v -0.0301838 8.71153e-19 0.014227
v 0.0312711 1.62324e-18 0.0265096
v 0.0307774 1.55789e-18 0.0254422
v 0.0292003 1.53715e-18 0.0251036
v 0.0302787 1.493e-18 0.0243826
v 0.0280891 1.57656e-18 0.0257472
v 0.0275012 1.52401e-18 0.024889
v 0.0299067 1.42548e-18 0.0232799
v -0.0299366 1.42584e-18 0.0232857
v -0.0302912 1.49322e-18 0.0243861
v -0.0292032 1.53741e-18 0.0251078
v -0.0307754 1.55802e-18 0.0254444
v -0.0275098 1.52436e-18 0.0248947
v -0.0280825 1.57668e-18 0.0257492
v -0.0312693 1.62329e-18 0.0265103
v -0.019025 -1.4062e-19 -0.0022965
v -0.0207246 -4.71009e-20 -0.000769216
v -0.0207977 -1.46994e-19 -0.00240059
v -0.0223337 4.16331e-20 0.00067992
v -0.0225285 -1.52571e-19 -0.00249167
v 0.0296231 1.35856e-18 0.022187
v 0.0290107 1.29129e-18 0.0210883
v 0.0282206 1.28122e-18 0.0209239
v 0.0288424 1.23674e-18 0.0201975
v 0.0280846 1.324e-18 0.0216226
v 0.0277248 1.27519e-18 0.0208254
v 0.0284924 1.18208e-18 0.0193049
v -0.0284985 1.18156e-18 0.0192963
v -0.0288634 1.23716e-18 0.0202044
v -0.0282506 1.28203e-18 0.0209372
v -0.0290278 1.29231e-18 0.0211051
v -0.0277509 1.27619e-18 0.0208418
v -0.0281076 1.32472e-18 0.0216344
v -0.0296313 1.35876e-18 0.0221903
v -0.021025 4.46318e-19 0.00728892
v -0.0200354 3.77165e-19 0.00615957
v -0.0204244 2.63872e-19 0.00430935
v -0.0189964 2.96012e-19 0.00483425
v -0.0217935 2.42536e-19 0.00396091
v 0.0290539 1.69324e-18 0.0276527
v 0.0285879 1.63359e-18 0.0266786
v 0.0301643 1.65869e-18 0.0270885
v -0.0301669 1.65887e-18 0.0270914
v -0.0285873 1.6338e-18 0.026682
v -0.0290485 1.69323e-18 0.0276525
v 0.0107615 2.09833e-19 0.00342683
v 0.00912235 2.27092e-19 0.0037087
v 0.0100064 1.15665e-19 0.00188896
v 0.00794788 3.29583e-19 0.0053825
v 0.00752058 2.40805e-19 0.00393265
v 0.00966265 4.07304e-19 0.00665178
v 0.00689971 1.50715e-19 0.00246136
v -0.0131312 6.0453e-19 0.00987272
v -0.0139755 5.42629e-19 0.0088618
v -0.013003 5.03866e-19 0.00822875
v -0.0156558 5.71e-19 0.00932514
v -0.0152516 4.6076e-19 0.00752478
v -0.01589 6.46724e-19 0.0105618
v -0.0149361 3.52651e-19 0.00575923
v 0.0230339 -1.36213e-19 -0.00222452
v 0.0215597 -2.0029e-20 -0.000327099
v 0.0212934 -1.33607e-19 -0.00218196
v 0.021633 8.78941e-20 0.00143542
v 0.0201119 7.05409e-20 0.00115202
v 0.023105 1.13239e-19 0.00184933
v 0.0215008 1.83662e-19 0.00299943
v 0.0186841 1.49415e-19 0.00244014
v 0.0185857 5.77461e-20 0.000943066
v -0.0126293 1.0178e-18 0.0166219
v -0.0121727 9.73649e-19 0.0159009
v -0.0124547 9.16275e-19 0.0149639
v -0.0117598 8.85505e-19 0.0144614
v -0.013665 8.83301e-19 0.0144254
v -0.0128281 8.26943e-19 0.013505
v -0.0111174 8.38075e-19 0.0136868
v -0.0223873 1.55621e-18 0.0254149
v -0.0218556 1.4922e-18 0.0243694
v -0.0225248 1.42567e-18 0.023283
v -0.0213564 1.42978e-18 0.0233501
v -0.0236253 1.41678e-18 0.0231378
v 0.021354 1.42998e-18 0.0233533
v 0.0225243 1.42567e-18 0.0232829
v 0.0218572 1.49212e-18 0.0243681
v 0.0236256 1.41654e-18 0.0231338
v 0.022389 1.55596e-18 0.0254107
v 0.0288725 5.57088e-19 0.00909794
v 0.028614 5.06567e-19 0.00827287
v 0.0277285 4.85809e-19 0.00793387
v 0.0277586 4.26717e-19 0.00696881
v 0.0265736 5.36191e-19 0.00875667
v 0.0263995 4.53144e-19 0.0074004
v 0.0275205 3.59228e-19 0.00586664
v -0.0276573 3.77434e-19 0.00616397
v -0.02808 4.33703e-19 0.00708291
v -0.0274425 4.6696e-19 0.00762603
v -0.0285964 5.0475e-19 0.00824319
v -0.026064 4.60152e-19 0.00751485
v -0.0264367 5.34162e-19 0.00872353
v -0.0288246 5.54286e-19 0.00905218
v -0.0142208 -1.59382e-19 -0.0026029
v -0.0145397 -6.18257e-20 -0.00100969
v -0.0138873 5.67911e-21 9.27469e-05
v -0.0146366 6.97271e-20 0.00113873
v -0.013001 -4.7873e-20 -0.000781825
v -0.0132397 6.54133e-20 0.00106828
v -0.0147778 1.65025e-19 0.00269506
v 0.0246354 -1.50039e-19 -0.00245033
v 0.0248553 -6.20418e-20 -0.00101322
v 0.0255562 4.30161e-21 7.02507e-05
v 0.0249131 6.82471e-20 0.00111456
v 0.0262884 -4.64663e-20 -0.000758853
v 0.0265246 4.85161e-20 0.000792328
v 0.0245223 1.48712e-19 0.00242865
v 0.0158932 1.86381e-19 0.00304383
v 0.016365 1.31268e-19 0.00214377
v 0.0148057 2.69249e-19 0.00439717
v 0.0141393 1.97653e-19 0.00322792
v 0.014459 3.7646e-19 0.00614806
v 0.0126393 1.76042e-19 0.00287499
v 0.0136555 9.30597e-20 0.00151978
v -0.0230797 2.27231e-19 0.00371097
v -0.0248623 3.0107e-19 0.00491685
v -0.0243053 2.18233e-19 0.00356401
v -0.0254942 3.82239e-19 0.00624244
v -0.0259944 2.97311e-19 0.00485545
v -0.0243653 3.90763e-19 0.00638164
v -0.0271013 2.99407e-19 0.00488968
v -0.0104584 1.94096e-19 0.00316983
v -0.010095 7.35725e-20 0.00120153
v -0.0108554 1.36176e-20 0.000222393
v -0.010104 -5.61768e-20 -0.000917437
v -0.0117582 7.25879e-20 0.00118545
v -0.0115136 -4.29093e-20 -0.000700762
v -0.0096813 -1.43459e-19 -0.00234287
v 0.0159942 -1.43087e-19 -0.00233679
v 0.0150957 -3.73255e-20 -0.000609571
v 0.0142989 -1.35797e-19 -0.00221773
v 0.0156461 6.2307e-20 0.00101755
v 0.0142973 4.54932e-20 0.000742961
v 0.0171081 5.23183e-20 0.000854423
v 0.0126023 2.74041e-20 0.000447543
v 0.0128055 -1.0665e-19 -0.00174173
v 0.0116067 -5.20632e-20 -0.000850257
v 0.0104592 -1.1636e-19 -0.0019003
v 0.0105262 -8.52501e-22 -1.39224e-05
v 0.00904025 -1.42825e-19 -0.00233251
v 0.0198439 2.51582e-19 0.00410864
v 0.0212218 2.70862e-19 0.00442352
v 0.0207967 3.53393e-19 0.00577135
v 0.022586 2.89494e-19 0.00472779
v 0.0215174 4.62309e-19 0.00755008
v 0.00928307 2.79531e-20 0.000456509
v 0.00782959 4.39108e-20 0.000717118
v 0.00892893 -5.43988e-20 -0.0008884
v 0.00627614 5.76782e-20 0.000941957
v 0.00740253 -1.44751e-19 -0.00236396
v 0.0110071 5.66317e-19 0.00924866
v 0.0109749 6.46271e-19 0.0105544
v 0.0123034 7.07827e-19 0.0115597
v 0.011085 7.24819e-19 0.0118372
v 0.0134959 6.89654e-19 0.0112629
v 0.0201382 5.67337e-19 0.00926531
v 0.018701 5.60462e-19 0.00915304
v 0.0180263 6.09866e-19 0.00995987
v 0.0176129 5.38853e-19 0.00880014
v 0.0188584 6.41819e-19 0.0104817
v 0.0176381 6.47036e-19 0.0105669
v 0.0163806 5.31162e-19 0.00867453
v 0.0195109 -1.3787e-19 -0.00225159
v 0.0182321 -3.98831e-20 -0.000651341
v 0.0177314 -1.41551e-19 -0.00231171
v -0.0159564 9.36432e-19 0.0152931
v -0.0150987 9.66724e-19 0.0157878
v -0.0159539 9.94836e-19 0.0162469
v -0.0143856 9.29219e-19 0.0151753
v -0.0139298 9.9663e-19 0.0162762
v -0.0148899 8.67883e-19 0.0141736
v -0.0133926 1.06731e-18 0.0174305
v 0.00565903 -1.40665e-19 -0.00229723
v 0.00584443 -3.933e-20 -0.000642307
v 0.00390123 -1.334e-19 -0.00217859
v 0.0256143 6.62393e-19 0.0108177
v 0.0266954 6.6134e-19 0.0108005
v 0.0267146 7.14355e-19 0.0116663
v 0.0266614 6.02639e-19 0.00984184
v 0.0277918 6.12458e-19 0.0100022
v 0.0254303 5.36169e-19 0.0087563
v 0.0290055 6.2569e-19 0.0102183
v -0.0277534 6.10212e-19 0.00996552
v -0.0289779 6.24533e-19 0.0101994
v -0.0266112 6.01255e-19 0.00981924
v -0.026673 6.61389e-19 0.0108013
v -0.0252873 5.36589e-19 0.00876317
v -0.0256084 6.65051e-19 0.0108611
v -0.0267106 7.14637e-19 0.0116709
v -0.021666 5.10647e-19 0.0083395
v -0.0220931 4.22319e-19 0.006897
v -0.0232238 4.04056e-19 0.00659874
v -0.0225082 3.26283e-19 0.00532861
v -0.0237892 4.76975e-19 0.0077896
v 0.00243805 4.46483e-19 0.00729162
v 0.00245041 3.82927e-19 0.00625368
v 0.00208609 3.24358e-19 0.00529717
v 0.00321295 2.97358e-19 0.00485623
v 0.00117939 3.57974e-19 0.00584616
v 0.015097 5.32969e-19 0.00870404
v 0.0137689 5.40995e-19 0.00883512
v 0.0141 4.62189e-19 0.00754812
v 0.0135596 6.16438e-19 0.0100672
v 0.0124137 5.52747e-19 0.00902704
v 0.0146329 6.7325e-19 0.010995
v 0.0111438 4.8257e-19 0.00788097
v -0.0277896 2.24636e-19 0.00366858
v -0.0266376 2.18547e-19 0.00356914
v -0.0263082 1.35892e-19 0.00221928
v -0.0251338 1.30102e-19 0.00212472
v -0.0273654 6.87688e-20 0.00112308
v -0.0262154 5.23774e-20 0.000855388
v -0.0239108 1.30063e-19 0.00212409
v 0.0128395 3.83269e-19 0.00625926
v 0.0112294 3.952e-19 0.0064541
v 0.0111311 3.0294e-19 0.00494738
v 0.02086 7.81116e-19 0.0127566
v 0.0217926 7.41879e-19 0.0121158
v 0.0218073 6.31465e-19 0.0103126
v 0.0229578 6.83886e-19 0.0111687
v 0.0211246 5.94586e-19 0.00971032
v 0.0222215 5.67274e-19 0.00926428
v 0.0244329 6.73274e-19 0.0109954
v -0.0245093 6.81791e-19 0.0111345
v -0.0233889 7.06101e-19 0.0115315
v -0.0221476 6.55278e-19 0.0107015
v -0.0222477 7.3311e-19 0.0119726
v -0.0219605 5.79545e-19 0.00946469
v -0.0206018 5.87483e-19 0.00959432
v -0.0211032 7.60861e-19 0.0124258
v -0.0145343 1.19312e-18 0.0194852
v -0.0139185 1.17542e-18 0.019196
v -0.0154614 1.24102e-18 0.0202674
v -0.0153306 1.19955e-18 0.0195902
v -0.0162926 1.27727e-18 0.0208594
v -0.0159687 1.20239e-18 0.0196366
v -0.0152986 1.15881e-18 0.0189248
v 0.0298318 7.56409e-19 0.0123531
v 0.0300097 7.16694e-19 0.0117045
v 0.0298363 8.30592e-19 0.0135646
v 0.0294022 7.97906e-19 0.0130308
v 0.0297562 8.92823e-19 0.0145809
v 0.029028 8.29637e-19 0.013549
v 0.0289175 7.70762e-19 0.0125875
v -0.0290162 8.28908e-19 0.0135371
v -0.0293915 7.97625e-19 0.0130262
v -0.0289015 7.70701e-19 0.0125865
v -0.0298244 8.3126e-19 0.0135755
v -0.0298193 7.56556e-19 0.0123555
v -0.0297412 8.93704e-19 0.0145953
v -0.0300003 7.16853e-19 0.0117071
v 0.0160457 1.20667e-18 0.0197064
v 0.0153602 1.19233e-18 0.0194723
v 0.0156127 1.16288e-18 0.0189913
v 0.0153307 1.23081e-18 0.0201006
v 0.014773 1.20573e-18 0.0196911
v 0.0162151 1.27612e-18 0.0208406
v 0.0140136 1.18273e-18 0.0193154
v -0.0275604 7.23711e-19 0.0118191
v -0.0283103 7.44983e-19 0.0121665
v -0.0288822 7.00241e-19 0.0114358
v 0.0289021 7.00314e-19 0.011437
v 0.0283252 7.44867e-19 0.0121646
v 0.0275671 7.23785e-19 0.0118203
v 0.0154153 1.06661e-18 0.017419
v 0.0154131 1.12771e-18 0.0184169
v 0.0144486 1.12437e-18 0.0183624
v -0.0144035 1.11072e-18 0.0181395
v -0.0153402 1.11216e-18 0.0181629
v -0.0155314 1.05716e-18 0.0172648
v -0.019925 7.86382e-19 0.0128426
v -0.0184851 8.05475e-19 0.0131544
v -0.0173634 7.54223e-19 0.0123174
v -0.0173434 8.69132e-19 0.014194
v -0.0177787 6.85833e-19 0.0112005
v -0.0165318 7.17067e-19 0.0117106
v -0.0164995 9.10788e-19 0.0148743
v 0.0184185 1.3171e-18 0.0215098
v 0.0195306 1.33881e-18 0.0218645
v 0.0175803 1.28715e-18 0.0210207
v 0.0183199 1.28277e-18 0.0209492
v 0.0168882 1.2835e-18 0.0209611
v 0.0181261 1.25199e-18 0.0204466
v 0.0191704 1.27088e-18 0.020755
v -0.0181036 1.2516e-18 0.0204401
v -0.0183381 1.28884e-18 0.0210484
v -0.0191828 1.27248e-18 0.0207812
v -0.017585 1.30018e-18 0.0212335
v -0.0184574 1.32343e-18 0.0216133
v -0.0168666 1.2719e-18 0.0207717
v -0.0195487 1.34035e-18 0.0218895
v 0.0282842 9.60399e-19 0.0156845
v 0.028623 9.93323e-19 0.0162222
v 0.0279154 1.01872e-18 0.0166369
v 0.0292262 9.67091e-19 0.0157938
v 0.0289932 1.01907e-18 0.0166426
v 0.0293221 9.16152e-19 0.0149619
v 0.0285516 1.07187e-18 0.017505
v -0.0289899 1.01968e-18 0.0166527
v -0.0285461 1.07176e-18 0.0175032
v -0.0292333 9.69406e-19 0.0158316
v -0.0286266 9.93587e-19 0.0162265
v -0.0293257 9.18222e-19 0.0149957
v -0.0282878 9.60613e-19 0.015688
v -0.0279159 1.01859e-18 0.0166349
v -0.00432951 7.51878e-19 0.0122791
v -0.00307321 7.5137e-19 0.0122708
v -0.00238096 6.77977e-19 0.0110722
v -0.00181606 7.5096e-19 0.0122641
v -0.00292568 6.04119e-19 0.00986602
v -0.00164847 6.03175e-19 0.0098506
v -0.000557721 7.50568e-19 0.0122577
v 0.000706525 7.50029e-19 0.0122489
v 0.00198184 7.49355e-19 0.0122379
v 0.00282534 6.73335e-19 0.0109964
v 0.00327906 7.48669e-19 0.0122267
v 0.00247906 5.95984e-19 0.00973315
v -0.0092953 7.62232e-19 0.0124482
v -0.00808058 7.56226e-19 0.0123501
v -0.00742927 6.83684e-19 0.0111654
v -0.00683718 7.53954e-19 0.012313
v -0.00801575 6.1266e-19 0.0100055
v -0.00674055 6.0918e-19 0.00994866
v -0.00558487 7.52686e-19 0.0122923
v -0.010348 7.87632e-19 0.012863
v -0.00988862 6.94932e-19 0.0113491
v -0.0104877 6.25103e-19 0.0102087
v -0.00926677 6.17675e-19 0.0100874
v -0.0115925 6.3798e-19 0.010419
v -0.0111023 5.55755e-19 0.00907617
v -0.0085663 5.39502e-19 0.00881074
v 0.0246785 1.29045e-18 0.0210746
v 0.0254299 1.27454e-18 0.0208148
v 0.0250664 1.33806e-18 0.0218521
v 0.0260734 1.25389e-18 0.0204776
v 0.026475 1.29376e-18 0.0211287
v 0.0257733 1.21417e-18 0.0198289
v 0.0263468 1.19488e-18 0.0195139
v 0.0270094 1.26742e-18 0.0206986
v -0.0270194 1.26855e-18 0.020717
v -0.0264855 1.29497e-18 0.0211484
v -0.0260816 1.25447e-18 0.020487
v -0.0254364 1.27497e-18 0.0208219
v -0.0263543 1.19468e-18 0.0195106
v -0.0257884 1.215e-18 0.0198425
v -0.0246818 1.29021e-18 0.0210707
v -0.0250701 1.33872e-18 0.021863
v -0.0274558 1.07012e-18 0.0174764
v -0.0271321 1.11829e-18 0.0182631
v -0.0278013 1.09767e-18 0.0179263
v -0.0269067 1.17362e-18 0.0191667
v -0.0281314 1.13418e-18 0.0185226
v 0.0281351 1.13431e-18 0.0185247
v 0.0278111 1.0982e-18 0.017935
v 0.0271362 1.12264e-18 0.0183341
v 0.0274585 1.07106e-18 0.0174917
v 0.0269041 1.17502e-18 0.0191896
v -0.0125989 4.02615e-19 0.0065752
v -0.0117893 4.81149e-19 0.00785776
v -0.0135096 3.25022e-19 0.00530801
v -0.0122642 3.01189e-19 0.00491879
v -0.0142909 2.45582e-19 0.00401066
v -0.0112882 2.46698e-19 0.00402888
v -0.0103693 2.85575e-19 0.00466379
v -0.00784666 2.88761e-19 0.00471583
v -0.00919016 2.96271e-19 0.00483847
v -0.00638313 2.78135e-19 0.00454229
v -0.00647814 3.71169e-19 0.00606165
v -0.00492124 2.79454e-19 0.00456383
v -0.00632495 4.54207e-19 0.00741777
v -0.00764571 4.57962e-19 0.00747909
v -0.0195095 6.32334e-19 0.0103268
v -0.0188438 6.5529e-19 0.0107017
v -0.0198056 7.02427e-19 0.0114715
v 0.0244688 1.19595e-18 0.0195313
v 0.0250196 1.20008e-18 0.0195988
v 0.0244409 1.24167e-18 0.020278
v -0.0244415 1.24144e-18 0.0202743
v -0.0250317 1.20067e-18 0.0196084
v -0.0244812 1.1957e-18 0.0195273
v 0.0170997 8.88114e-19 0.014504
v 0.0180945 8.54999e-19 0.0139632
v 0.0181591 7.66292e-19 0.0125145
v 0.0189394 8.15296e-19 0.0133148
v 0.0188916 7.25573e-19 0.0118495
v 0.0201757 8.04593e-19 0.01314
v -0.0235702 1.54228e-18 0.0251873
v -0.0247176 1.52536e-18 0.024911
v -0.0241475 1.4705e-18 0.0240151
v -0.0258129 1.50385e-18 0.0245597
v -0.0246495 1.40365e-18 0.0229233
v 0.0246484 1.40302e-18 0.0229131
v 0.024153 1.47019e-18 0.0240101
v 0.0247213 1.52489e-18 0.0249033
v 0.0235696 1.54168e-18 0.0251776
v 0.0258132 1.50342e-18 0.0245527
v 0.028518 1.39483e-18 0.0227793
v 0.0277904 1.4399e-18 0.0235153
v 0.0276652 1.36425e-18 0.0222799
v 0.0268345 1.47552e-18 0.024097
v 0.0269979 1.33071e-18 0.0217321
v -0.0270197 1.33215e-18 0.0217556
v -0.0276895 1.36476e-18 0.0222883
v -0.0278043 1.44015e-18 0.0235195
v -0.0285218 1.39409e-18 0.0227672
v -0.0268402 1.47595e-18 0.0241041
v 0.0275136 1.24752e-18 0.0203735
v 0.0272204 1.21107e-18 0.0197782
v 0.0278299 1.19561e-18 0.0195258
v -0.0278336 1.19466e-18 0.0195103
v -0.0272277 1.21111e-18 0.0197789
v -0.0275339 1.2488e-18 0.0203944
v -0.010433 4.66962e-19 0.00762607
v -0.00923827 3.77347e-19 0.00616255
v -0.00900318 4.60153e-19 0.00751487
v -0.0372409 -1.26341e-19 -0.0020633
v -0.0366743 -7.13026e-20 -0.00116446
v -0.037344 -6.44176e-20 -0.00105202
v -0.0355875 -1.58272e-20 -0.000258477
v -0.0373134 -2.19406e-20 -0.000358318
v 0.0371347 5.41877e-21 8.84953e-05
v 0.0371479 -5.58097e-20 -0.000911441
v 0.0361014 -6.34716e-20 -0.00103657
v 0.0370131 -1.19626e-19 -0.00195364
v 0.0354075 -1.13347e-20 -0.00018511
v 0.000176177 6.75883e-19 0.011038
v -0.000331522 5.99835e-19 0.00979605
v 0.00106339 5.95987e-19 0.0097332
v -0.000836593 5.23394e-19 0.00854767
v 0.00235885 5.17699e-19 0.00845467
v -0.00594966 5.31628e-19 0.00868214
v -0.00545613 6.06457e-19 0.0099042
v -0.00418472 6.04796e-19 0.00987707
v -0.00490112 6.79587e-19 0.0110985
v -0.00340163 5.29017e-19 0.00863951
v 0.0337841 2.60209e-19 0.00424953
v 0.0349978 2.45423e-19 0.00400806
v 0.0353423 2.0227e-19 0.00330332
v 0.0359581 2.50565e-19 0.00409204
v 0.0345674 1.88723e-19 0.00308208
v 0.0355012 1.72452e-19 0.00281635
v 0.0370243 2.4577e-19 0.00401373
v -0.0370346 2.45092e-19 0.00400266
v -0.0359628 2.48857e-19 0.00406415
v -0.0353911 2.00594e-19 0.00327595
v -0.0349971 2.41574e-19 0.00394521
v -0.0356068 1.64991e-19 0.00269451
v -0.0346995 1.78632e-19 0.00291728
v -0.033734 2.55973e-19 0.00418036
v -0.00355659 2.90783e-19 0.00474885
v -0.00379738 3.73372e-19 0.00609763
v -0.0037162 4.52553e-19 0.00739075
v -0.0049809 4.51664e-19 0.00737624
v -0.0024605 4.54754e-19 0.00742669
v 0.0293067 -1.70169e-19 -0.00277907
v 0.02769 -1.72843e-19 -0.00282274
v 0.0271162 -8.6198e-20 -0.00140772
v 0.0259851 -1.67145e-19 -0.00272968
v 0.0275515 -4.25353e-20 -0.000694654
v -0.0241832 -1.53164e-19 -0.00250136
v -0.0256574 -1.39207e-19 -0.00227343
v -0.0268677 -1.07038e-19 -0.00174806
v -0.0276975 -1.76894e-19 -0.0028889
v -0.0263994 -2.89707e-20 -0.000473128
v -0.0279478 -7.04766e-20 -0.00115097
v -0.0291293 -1.7532e-19 -0.0028632
v 0.0258321 1.83898e-19 0.00300329
v 0.0242398 2.31224e-19 0.00377617
v 0.0271747 1.41809e-19 0.00231592
v 0.0270437 2.10668e-19 0.00344047
v 0.0275579 7.9291e-20 0.00129492
v 0.028171 2.29176e-19 0.00374272
v 0.0271788 2.84602e-19 0.00464791
v -0.010985 -1.41692e-19 -0.002314
v -0.0120628 -1.02261e-19 -0.00167005
v -0.0127932 -1.68036e-19 -0.00274423
v 0.015646 7.22242e-19 0.0117951
v 0.0159445 7.7961e-19 0.012732
v 0.0167338 7.50268e-19 0.0122528
v 0.016468 8.34027e-19 0.0136207
v 0.0174443 7.15322e-19 0.0116821
v -0.0117135 7.84882e-19 0.0128181
v -0.0124052 7.47457e-19 0.0122069
v -0.0120669 7.03682e-19 0.011492
v -0.0136426 7.62888e-19 0.0124589
v -0.01246 6.62969e-19 0.0108271
v 0.0293048 2.39775e-19 0.00391582
v 0.0304481 2.43977e-19 0.00398445
v 0.0311583 1.92671e-19 0.00314656
v 0.0317232 2.36323e-19 0.00385944
v 0.0306686 1.37183e-19 0.00224037
v 0.0315638 1.58614e-19 0.00259036
v 0.0328504 2.55259e-19 0.00416869
v -0.0325519 2.52931e-19 0.00413067
v -0.0313715 2.42544e-19 0.00396105
v -0.0309283 1.76396e-19 0.00288077
v -0.03019 2.37743e-19 0.00388263
v -0.0315305 1.12927e-19 0.00184423
v -0.0306613 1.14843e-19 0.00187553
v -0.0289891 2.3187e-19 0.00378673
v 0.0321207 1.1147e-19 0.00182044
v 0.0329867 1.40179e-19 0.00228929
v 0.0337942 1.6711e-19 0.00272912
v 0.0332724 2.08227e-19 0.0034006
v 0.0343919 1.30308e-19 0.00212809
v -0.0372461 3.91057e-20 0.000638644
v -0.0370105 1.12696e-19 0.00184046
v -0.0361478 1.50079e-19 0.00245098
v -0.0371027 1.82365e-19 0.00297824
v -0.0358768 1.13412e-19 0.00185216
v 0.0370736 1.87766e-19 0.00306645
v 0.0360365 1.59793e-19 0.00260962
v 0.0368462 1.3689e-19 0.00223558
v 0.0356198 1.27211e-19 0.00207751
v 0.0368701 5.77651e-20 0.000943375
v -0.0334102 1.88012e-19 0.00307047
v -0.0341103 1.47142e-19 0.00240301
v -0.0328028 1.42151e-19 0.0023215
v -0.0348043 1.11377e-19 0.00181892
v -0.0323076 9.33077e-20 0.00152383
v 0.0286395 8.53058e-19 0.0139315
v 0.0289693 8.85285e-19 0.0144578
v 0.0284694 9.03208e-19 0.0147505
v -0.0285439 9.16905e-19 0.0149742
v -0.0289706 8.87061e-19 0.0144868
v -0.0286294 8.5383e-19 0.0139441
v 0.0174283 1.24115e-18 0.0202695
v 0.0167925 1.25138e-18 0.0204366
v 0.016663 1.21991e-18 0.0199226
v -0.0165117 1.19919e-18 0.0195843
v -0.0167045 1.23548e-18 0.0201769
v -0.017252 1.22353e-18 0.0199818
v 0.020315 7.29357e-19 0.0119113
v 0.0196128 6.8369e-19 0.0111655
v 0.0203378 6.40643e-19 0.0104625
v -0.0237321 3.71224e-20 0.000606254
v -0.0251881 -4.7693e-20 -0.000778885
v -0.0238367 -5.61225e-20 -0.00091655
v -0.00128231 4.52833e-19 0.00739532
v -0.000279029 4.35364e-19 0.00711003
v 0.000478532 3.98616e-19 0.0065099
v 0.00134363 4.32144e-19 0.00705744
v -0.000281259 3.59911e-19 0.00587779
v -0.0243937 6.15967e-19 0.0100595
v -0.0241645 5.47595e-19 0.00894291
v -0.0230541 5.63424e-19 0.00920142
v 0.0225216 5.00544e-19 0.00817451
v 0.023427 5.3015e-19 0.00865801
v 0.0243815 5.38755e-19 0.00879854
v 0.0244012 6.02862e-19 0.00984549
v 0.0242013 4.79732e-19 0.00783461
v 0.0346525 2.98048e-21 4.8675e-05
v 0.0338741 2.69654e-20 0.000440378
v 0.0333761 -1.49357e-20 -0.000243918
v 0.0344111 6.54721e-20 0.00106924
v 0.0328281 5.46058e-20 0.00089178
v 0.0350301 9.76895e-20 0.00159539
v 0.0316515 3.32979e-20 0.000543796
v 0.0263238 3.31176e-19 0.00540851
v 0.025605 3.79887e-19 0.00620402
v 0.0248953 3.31755e-19 0.00541797
v 0.0247864 4.10182e-19 0.00669878
v 0.023869 3.05627e-19 0.00499126
v -0.0330716 6.34159e-20 0.00103566
v -0.0317823 5.17955e-20 0.000845885
v -0.0343468 7.37176e-20 0.0012039
v -0.0338736 3.09596e-20 0.000505609
v -0.0347087 1.56856e-21 2.56165e-05
v -0.0333196 -1.50423e-20 -0.00024566
v -0.0255766 1.38556e-18 0.0226279
v -0.0261743 1.4303e-18 0.0233585
v -0.0263705 1.36052e-18 0.022219
v 0.0263631 1.3602e-18 0.0222138
v 0.0261689 1.4297e-18 0.0233488
v 0.025566 1.38364e-18 0.0225965
v -0.0159763 6.94938e-19 0.0113492
v -0.0160614 7.67174e-19 0.0125289
v -0.0154704 8.14996e-19 0.0133099
v -0.016056 8.61135e-19 0.0140634
v -0.01489 7.65753e-19 0.0125057
v -0.0138017 6.54721e-19 0.0106924
v -0.0143546 7.1133e-19 0.0116169
v -0.0150882 6.69723e-19 0.0109374
v 0.0236782 3.69178e-19 0.00602914
v 0.0238713 4.24635e-19 0.00693482
v 0.0230348 4.47851e-19 0.00731396
v -0.00227924 3.07785e-19 0.00502651
v -0.0011701 3.30446e-19 0.0053966
v -0.00143029 3.90058e-19 0.00637013
v -0.0286773 1.58699e-19 0.00259175
v -0.0296545 1.04104e-19 0.00170014
v -0.0285573 8.76694e-20 0.00143175
v -0.0307012 6.27625e-20 0.00102499
v -0.0286927 2.03883e-20 0.000332967
v 0.0360689 3.29535e-20 0.000538172
v 0.0356356 6.69331e-20 0.0010931
v 0.0355325 1.97543e-20 0.000322612
v -0.035646 2.23448e-20 0.000364918
v -0.0354976 7.93149e-20 0.00129531
v -0.0362508 4.36712e-20 0.000713205
v 0.0280239 2.21059e-20 0.000361017
v 0.0286173 1.01461e-19 0.00165698
v 0.029679 1.19944e-19 0.00195883
v 0.0294026 1.77672e-19 0.0029016
v 0.0301297 6.41666e-20 0.00104792
v -0.0135965 1.84522e-19 0.00301348
v -0.0126387 1.27939e-19 0.0020894
v -0.0120047 1.9014e-19 0.00310522
v 0.0159503 5.96697e-19 0.0097448
v 0.016616 6.53269e-19 0.0106687
v 0.0156881 6.61224e-19 0.0107986
v 0.0307047 -1.56037e-19 -0.00254828
v 0.0300022 -8.05346e-20 -0.00131523
v 0.0295069 -1.68087e-20 -0.000274507
v 0.0283713 -3.55666e-20 -0.000580846
v 0.0306111 8.19227e-21 0.00013379
v -0.0290507 -4.29561e-20 -0.000701526
v -0.0301471 -1.62932e-20 -0.000266088
v -0.0292883 -1.06863e-19 -0.0017452
v -0.0310895 1.60144e-20 0.000261535
v -0.03062 -1.74099e-19 -0.00284326
v -0.0317901 -2.73023e-20 -0.00044588
v -0.0326848 -6.32389e-20 -0.00103277
v -0.0322004 -1.17033e-19 -0.0019113
v 0.031852 -9.73913e-20 -0.00159052
v 0.0327268 -5.51313e-20 -0.000900362
v 0.0321167 -1.49357e-20 -0.000243919
v -0.0201774 1.25175e-18 0.0204426
v -0.0204295 1.28964e-18 0.0210614
v -0.0212552 1.22873e-18 0.0200667
v 0.0212473 1.22852e-18 0.0200633
v 0.0204183 1.28907e-18 0.0210521
v 0.0201731 1.25163e-18 0.0204406
# </points>

# <faces count="1242">
g zone0
f 456 1169 1170 1168
f 1241 1172 277 1243
f 1167 1168 62 63
f 1240 457 1172 1241
f 1095 1094 1155 236
f 171 1237 471 1239
f 165 1163 1166 166
f 1218 1240 1242 467
f 1094 1177 453 1155
f 1046 1047 429 1044
f 1166 1235 172 173
f 1235 1237 171 172
f 1162 1164 276 1165
f 1240 1241 472 1242
f 1092 442 1177 1094
f 1350 637 271 1278
f 428 1044 1045 1043
f 1163 455 1235 1166
f 1237 1236 1238 471
f 1161 454 1164 1162
f 1218 1173 457 1240
f 1042 1043 110 111
f 1177 1176 1159 453
f 1349 326 637 1350
f 166 1166 173 21
f 1046 1052 431 1055
f 1236 1165 276 1238
f 1145 451 1147 1146
f 61 1173 1218 60
f 1040 493 115 114
f 1350 1351 483 1349
f 1176 1178 248 1159
f 47 46 1345 639
f 1316 1318 256 935
f 1035 1034 1159 248
f 164 1161 1163 165
f 487 1041 1154 235
f 63 3 56 1167
f 1337 1336 1349 483
f 1175 458 1178 1176
f 1067 1066 1069 436
f 1039 283 493 1040
f 1044 428 1052 1046
f 1162 1165 1236 455
f 170 1145 1146 169
f 640 639 1348 327
f 1315 481 1318 1316
f 453 1159 1034 1157
f 1161 1162 455 1163
f 1176 1177 442 1175
f 1038 1040 114 113
f 1336 638 326 1349
f 435 1068 1069 1066
f 1041 1152 452 1154
f 1168 1167 1233 456
f 458 1313 1263 1178
f 1059 433 1063 1060
f 455 1236 1237 1235
f 1141 450 1144 1142
f 1052 1051 1054 431
f 1066 1067 437 1065
f 1143 1292 478 1322
f 1174 1175 442 1093
f 190 638 1336 189
f 1357 1008 27 232
f 484 1348 639 1345
f 1314 1316 935 401
f 1047 1156 1158 429
f 164 1160 454 1161
f 1039 427 1152 1041
f 55 1233 1167 56
f 1313 1312 1267 473
f 1061 1062 433 1059
f 1064 435 1066 1065
f 61 1170 457 1173
f 1041 487 283 1039
f 644 270 1292 1143
f 51 1142 1144 52
f 198 1354 622 197
f 1051 1053 238 1054
f 71 562 1024 6
f 1174 528 293 1311
f 1152 1151 1153 452
f 1169 456 1232 1171
f 1312 527 269 1267
f 132 607 608 133
f 1057 432 1061 1059
f 1034 1035 426 1032
f 107 108 1048 1030
f 1356 418 1008 1357
f 1348 1347 643 327
f 1223 1317 481 1315
f 1156 1157 425 1158
f 251 1064 1065 1126
f 1168 1170 61 62
f 1141 1142 51 1140
f 427 1039 1040 1038
f 636 1149 1276 271
f 644 1143 450 1141
f 150 18 1022 549
f 615 321 1353 616
f 1050 430 1053 1051
f 1093 242 528 1174
f 1137 1139 1055 431
f 1151 1035 248 1153
f 1232 1234 277 1171
f 1311 293 527 1312
f 603 606 91 92
f 1059 1060 434 1057
f 164 163 1217 1160
f 425 1032 1033 1031
f 1031 1030 1158 425
f 1355 1357 232 231
f 1347 1293 270 643
f 1222 260 1317 1223
f 1155 453 1157 1156
f 1229 1281 1238 276
f 1060 1063 252 1125
f 256 1318 1341 1189
f 1170 1169 1172 457
f 645 1140 51 50
f 1037 1038 113 112
f 1149 1321 475 1276
f 1140 328 644 1141
f 550 549 1020 300
f 614 616 1015 9
f 1051 1052 428 1050
f 946 234 869 1271
f 1089 443 1138 1090
f 1150 426 1035 1151
f 1231 470 1234 1232
f 1312 1313 458 1311
f 602 316 606 603
f 1056 1057 434 1058
f 236 1155 1156 1047
f 1217 1228 454 1160
f 1030 1031 106 107
f 429 1158 1030 1048
f 1203 463 1334 1205
f 1220 1223 1315 468
f 631 1003 418 1356
f 1346 479 1293 1347
f 1169 1171 277 1172
f 471 1238 1281 1320
f 1151 1152 427 1150
f 1339 1325 254 1183
f 642 328 1140 645
f 1033 1036 12 105
f 1319 1321 1149 451
f 422 1020 549 1022
f 600 601 93 94
f 1043 1042 1050 428
f 420 1015 616 1353
f 1175 1174 1311 458
f 1272 1271 1310 474
f 542 1090 1088 241
f 54 1231 1233 55
f 601 603 92 93
f 1047 1046 1055 236
f 630 15 1003 631
f 1214 466 1228 1217
f 1026 1028 23 1029
f 1032 425 1157 1034
f 1334 885 261 1205
f 324 1356 1357 1355
f 468 1315 1316 1314
f 1032 426 1036 1033
f 1319 1320 475 1321
f 1038 1037 1150 427
f 1279 475 1320 1281
f 1338 482 1325 1339
f 509 510 289 511
f 49 645 50 2
f 551 300 1019 553
f 596 598 28 599
f 1042 1049 430 1050
f 199 1352 1354 198
f 386 1310 1271 869
f 441 1088 1090 1138
f 1231 1232 456 1233
f 604 605 316 602
f 1338 1339 459 1337
f 627 631 1356 324
f 1347 1348 484 1346
f 1228 1227 1164 454
f 1025 423 1028 1026
f 882 885 1334 390
f 625 1355 231 230
f 1224 1314 401 931
f 1031 1033 105 106
f 1239 471 1320 1319
f 1037 1036 426 1150
f 1181 459 1339 1183
f 195 508 288 509
f 1139 1095 236 1055
f 1258 1109 261 884
f 1310 1309 1275 474
f 53 1230 1231 54
f 315 602 603 601
f 1336 1337 459 1179
f 441 1138 1139 1137
f 421 1021 553 1019
f 595 313 598 596
f 111 11 1049 1042
f 1352 1353 321 1354
f 1342 1344 1346 484
f 1227 1229 276 1164
f 1023 1026 1029 424
f 390 1334 1335 1333
f 624 324 1355 625
f 1221 468 1314 1224
f 1239 1319 451 1145
f 112 12 1036 1037
f 1340 1329 482 1338
f 228 504 287 507
f 1138 443 1095 1139
f 1257 445 1109 1258
f 1045 1048 108 109
f 1011 420 1353 1352
f 593 596 599 314
f 1018 1017 1020 422
f 188 189 1336 1179
f 310 581 584 585
f 1309 1286 267 1275
f 1083 1137 431 1054
f 210 669 1009 24
f 1344 1289 479 1346
f 1226 469 1229 1227
f 561 1027 423 1025
f 886 1333 399 924
f 57 1224 931 4
f 623 625 230 229
f 669 1256 419 1009
f 1317 260 1289 1344
f 1337 483 1340 1338
f 171 1239 1145 170
f 192 22 167 632
f 502 504 228 227
f 1258 1259 403 1257
f 1044 429 1048 1045
f 24 1011 1352 199
f 573 572 575 307
f 591 597 313 595
f 1017 1019 300 1020
f 1082 441 1137 1083
f 1308 477 1286 1309
f 582 583 309 580
f 1335 1201 255 929
f 558 561 1025 303
f 1227 1228 466 1226
f 513 279 1068 1075
f 883 390 1333 886
f 1153 248 1178 1263
f 621 196 197 622
f 666 334 1256 669
f 45 1190 1345 46
f 942 941 1257 403
f 633 632 1148 325
f 504 503 506 287
f 590 255 597 591
f 1016 421 1019 1017
f 1043 1045 109 110
f 1329 1340 1282 259
f 572 574 274 575
f 1305 464 1209 1306
f 1123 1125 252 743
f 773 1083 1054 238
f 1309 1310 386 1308
f 1062 1061 506 280
f 578 308 582 580
f 1334 463 1201 1335
f 1190 1343 484 1345
f 1256 1255 1014 419
f 1225 1226 466 1216
f 303 1025 1026 1023
f 618 622 1354 321
f 1264 1263 1313 473
f 1134 438 1075 1135
f 689 886 924 246
f 168 1148 632 167
f 503 505 280 506
f 941 1110 445 1257
f 588 591 595 312
f 634 325 1147 636
f 1280 1282 1351 476
f 126 571 573 127
f 30 1016 1017 1018
f 1306 1307 360 1305
f 1121 1123 743 353
f 1136 1064 251 750
f 1287 1308 386 868
f 1099 287 506 1100
f 580 581 310 578
f 1333 1335 929 399
f 1187 460 1343 1190
f 567 1014 959 275
f 1135 1136 355 1134
f 1088 1087 846 241
f 1215 259 1225 1216
f 562 1023 424 1024
f 451 1149 636 1147
f 1330 374 823 1331
f 218 1110 941 219
f 312 595 596 593
f 286 503 504 502
f 483 1351 1282 1340
f 306 572 573 571
f 795 794 1111 367
f 97 9 1015 563
f 772 771 1305 360
f 349 725 1124 1122
f 577 578 310 579
f 623 1099 1101 322
f 1135 435 1064 1136
f 1285 477 1308 1287
f 481 1317 1344 1342
f 407 959 1014 1255
f 747 746 1134 355
f 1087 1332 381 846
f 559 303 1023 562
f 58 1221 1224 57
f 169 1146 1148 168
f 1331 1332 440 1330
f 592 593 314 594
f 501 502 227 226
f 1351 1350 1278 476
f 14 570 571 126
f 794 606 316 1111
f 564 563 1013 304
f 748 355 1136 750
f 1192 1287 868 253
f 771 1210 464 1305
f 1121 1122 448 1123
f 127 573 576 128
f 1099 1100 432 1101
f 1075 1068 435 1135
f 1000 249 776 1300
f 1189 1341 1343 460
f 746 1076 438 1134
f 1085 440 1332 1087
f 467 1222 1223 1220
f 1146 1147 325 1148
f 824 1330 440 1086
f 589 312 593 592
f 498 485 235 500
f 566 569 10 95
f 90 91 606 794
f 420 1013 563 1015
f 1053 1210 771 238
f 726 349 1122 1121
f 776 1307 480 1300
f 623 507 287 1099
f 1255 1256 334 1254
f 953 1096 1098 406
f 546 548 13 118
f 1341 1342 484 1343
f 74 6 1076 746
f 1332 1331 850 381
f 59 1219 1221 58
f 153 810 1197 20
f 990 661 265 978
f 821 374 1330 824
f 121 592 594 122
f 497 281 485 498
f 565 304 1012 567
f 218 1108 445 1110
f 564 566 95 96
f 552 555 19 152
f 892 26 1001 890
f 726 1121 353 739
f 774 360 1307 776
f 228 507 623 229
f 1001 1303 391 890
f 960 407 1255 1254
f 1318 481 1342 1341
f 1117 447 1120 1118
f 1096 1097 415 1098
f 545 299 548 546
f 1331 823 278 850
f 143 745 1077 18
f 989 332 661 990
f 531 824 1086 243
f 774 776 249 582
f 120 589 592 121
f 495 498 500 285
f 419 1014 567 1012
f 1106 1108 218 217
f 566 565 568 305
f 550 552 152 151
f 792 1209 464 1207
f 665 668 1254 334
f 1307 1306 1304 480
f 223 29 902 677
f 145 146 726 739
f 998 416 1303 1001
f 205 206 954 995
f 1219 1220 468 1221
f 1280 1225 259 1282
f 1118 1119 368 1117
f 953 584 309 1096
f 544 546 118 117
f 745 1133 439 1077
f 989 990 414 991
f 160 20 1196 1211
f 773 772 775 361
f 651 653 140 141
f 499 490 281 497
f 311 590 591 588
f 662 989 314 599
f 1011 1010 1013 420
f 1108 1107 1109 445
f 565 567 275 568
f 552 551 554 301
f 791 266 1209 792
f 264 960 1254 668
f 1306 1209 266 1304
f 902 988 337 677
f 131 803 607 132
f 987 988 394 986
f 1303 1302 895 391
f 996 995 1098 415
f 742 354 1133 745
f 1218 467 1220 1219
f 1226 1225 1280 469
f 800 802 1117 368
f 585 584 953 233
f 491 547 299 545
f 360 774 775 772
f 1212 1211 1328 465
f 659 332 989 662
f 612 654 330 652
f 284 497 498 495
f 119 587 589 120
f 1010 1012 304 1013
f 1206 366 792 1207
f 551 553 273 554
f 304 565 566 564
f 1107 1205 261 1109
f 1009 419 1012 1010
f 300 551 552 550
f 1207 1208 430 1206
f 1253 976 265 660
f 901 394 988 902
f 803 1119 317 607
f 904 906 986 394
f 1302 1304 266 895
f 406 1098 995 954
f 1252 413 976 1253
f 1133 1132 1081 439
f 877 388 927 879
f 802 1116 447 1117
f 60 1218 1219 59
f 1281 1229 469 1279
f 443 1092 1094 1095
f 490 247 547 491
f 238 771 772 773
f 461 1328 1211 1196
f 611 257 654 612
f 496 494 284 495
f 587 588 312 589
f 215 662 599 28
f 549 550 151 150
f 563 564 96 97
f 444 1107 1108 1106
f 24 1009 1010 1011
f 793 1206 430 1049
f 988 987 681 337
f 801 368 1119 803
f 962 410 986 963
f 1301 480 1304 1302
f 583 999 415 1097
f 1251 1253 660 331
f 505 1081 1062 280
f 590 879 929 255
f 488 491 545 282
f 1092 1091 1093 442
f 1104 1103 512 288
f 629 239 1116 802
f 1214 1217 163 162
f 1278 1277 1280 476
f 768 494 245 770
f 1328 1327 1215 465
f 609 612 652 318
f 283 489 492 493
f 586 311 588 587
f 72 559 562 71
f 1105 1106 217 216
f 790 366 1206 793
f 1005 1007 27 1008
f 765 768 770 359
f 987 968 262 681
f 1119 1118 611 317
f 156 963 986 906
f 1302 1303 416 1301
f 582 249 999 583
f 1006 981 413 1252
f 1277 1279 469 1280
f 1212 1214 162 161
f 433 1062 1081 1132
f 399 929 879 927
f 1091 541 242 1093
f 1068 279 512 1069
f 619 798 1115 240
f 1004 417 1007 1005
f 558 560 272 561
f 195 196 621 508
f 318 652 653 651
f 767 284 494 768
f 1327 1329 259 1215
f 281 490 491 488
f 13 586 587 119
f 575 274 981 1006
f 497 284 767 499
f 986 410 968 987
f 997 1000 1301 416
f 1096 309 583 1097
f 1118 1120 257 611
f 985 975 67 908
f 798 1113 446 1115
f 436 1069 512 1103
f 282 545 546 544
f 1089 297 541 1091
f 1276 475 1279 1277
f 1214 1213 1216 466
f 1132 1133 354 1131
f 926 925 928 400
f 1002 1005 1008 418
f 98 793 1049 11
f 557 302 560 558
f 621 1104 288 508
f 580 309 584 581
f 613 651 141 142
f 948 912 395 1268
f 1273 1275 267 905
f 487 486 489 283
f 137 760 720 136
f 1326 482 1329 1327
f 1004 1006 1252 417
f 490 499 769 247
f 1000 1300 480 1301
f 973 975 985 412
f 796 367 1113 798
f 436 1103 1104 1102
f 492 544 117 116
f 1091 1092 443 1089
f 271 1276 1277 1278
f 465 1215 1216 1213
f 1063 433 1132 1131
f 925 927 388 928
f 1102 1104 621 320
f 307 575 1006 1004
f 216 28 598 1105
f 73 557 559 72
f 486 488 282 489
f 722 348 759 724
f 1327 1328 461 1326
f 209 25 912 948
f 610 318 651 613
f 1272 474 1275 1273
f 485 281 488 486
f 725 724 654 257
f 358 769 499 767
f 907 396 985 908
f 417 1252 1253 1251
f 1299 1116 239 1058
f 1113 1112 1114 446
f 1070 1102 320 620
f 924 399 927 925
f 741 744 1131 354
f 489 282 544 492
f 1090 542 297 1089
f 222 947 900 29
f 465 1213 1214 1212
f 1112 605 258 1114
f 1067 436 1102 1070
f 135 613 142 16
f 1273 1274 404 1272
f 235 485 486 487
f 330 654 724 759
f 1193 1195 1326 461
f 94 8 87 600
f 500 235 1154 919
f 307 1004 1005 1002
f 1106 1105 1204 444
f 557 558 303 559
f 358 767 768 765
f 985 984 971 412
f 763 646 84 83
f 657 656 1251 331
f 145 740 742 144
f 1298 447 1116 1299
f 252 1063 1131 744
f 493 492 116 115
f 441 1085 1087 1088
f 947 1274 393 900
f 1211 1212 161 160
f 1111 316 605 1112
f 1071 1070 620 240
f 920 919 1266 398
f 601 600 649 315
f 1271 1272 404 946
f 246 924 925 926
f 554 273 966 713
f 138 758 760 137
f 1195 1325 482 1326
f 5 556 557 73
f 576 1002 418 1003
f 313 1204 1105 598
f 764 765 359 766
f 984 675 263 971
f 762 329 646 763
f 1112 1113 367 1111
f 1058 239 628 1056
f 76 752 727 77
f 543 540 297 542
f 1085 1084 1086 440
f 944 404 1274 947
f 1207 464 1210 1208
f 452 1266 919 1154
f 86 649 600 87
f 953 952 914 233
f 494 496 693 245
f 711 713 964 346
f 758 759 348 760
f 830 254 1325 1195
f 1107 444 1203 1205
f 573 307 1002 576
f 740 741 354 742
f 1297 1299 1058 434
f 983 336 675 984
f 761 763 83 82
f 430 1208 1210 1053
f 1274 1273 905 393
f 1057 1056 1101 432
f 656 1007 417 1251
f 1128 350 727 1129
f 540 539 541 297
f 1266 1265 923 398
f 602 315 648 604
f 952 1270 397 914
f 496 922 342 693
f 346 964 965 962
f 52 1144 1230 53
f 128 576 1003 15
f 1084 777 243 1086
f 597 1202 1204 313
f 145 739 353 740
f 1124 1120 447 1298
f 537 536 39 38
f 984 985 396 983
f 732 650 329 762
f 913 676 336 983
f 213 27 1007 656
f 356 1129 727 752
f 519 242 541 520
f 655 330 759 758
f 322 1101 1056 628
f 605 604 650 258
f 1265 1267 269 923
f 950 405 1270 952
f 495 285 922 496
f 963 714 346 962
f 1231 1230 1324 470
f 200 676 913 25
f 736 738 42 41
f 725 257 1120 1124
f 79 730 733 80
f 910 913 983 396
f 731 258 650 732
f 998 1001 26 203
f 1082 361 777 1084
f 1202 1203 444 1204
f 506 1061 432 1100
f 139 655 758 138
f 1250 969 263 674
f 1130 731 350 1128
f 291 520 541 539
f 920 398 923 921
f 329 650 604 648
f 1264 473 1267 1265
f 450 1324 1230 1144
f 157 714 963 156
f 1270 1269 918 397
f 922 921 698 342
f 123 122 982 700
f 735 352 738 736
f 1122 1124 1298 448
f 350 731 732 729
f 729 732 762 351
f 996 998 203 204
f 1084 1085 441 1082
f 1201 463 1203 1202
f 756 529 243 579
f 1249 411 969 1250
f 751 1127 1129 356
f 538 521 540 298
f 921 922 285 920
f 223 678 680 224
f 921 923 269 698
f 1269 911 268 918
f 958 960 264 961
f 85 647 649 86
f 1265 1266 452 1264
f 1324 1323 1234 470
f 982 980 344 700
f 734 736 41 40
f 448 1298 1299 1297
f 78 728 730 79
f 176 897 899 175
f 351 762 763 761
f 997 999 249 1000
f 1083 773 361 1082
f 255 1201 1202 597
f 678 679 338 680
f 755 294 529 756
f 672 335 1250 674
f 449 1128 1129 1127
f 291 539 540 521
f 919 920 285 500
f 1268 395 911 1269
f 647 648 315 649
f 1263 1264 452 1153
f 571 570 703 306
f 957 407 960 958
f 1323 1243 277 1234
f 1060 1125 1297 434
f 535 737 352 735
f 728 729 351 730
f 980 979 704 344
f 226 30 1018 501
f 996 415 999 997
f 537 38 37 818
f 33 521 538 34
f 251 1126 1127 751
f 1027 974 411 1249
f 223 677 337 678
f 956 709 345 955
f 754 756 579 310
f 534 757 839 250
f 296 533 536 537
f 955 958 961 408
f 701 703 125 124
f 585 233 914 753
f 1269 1270 405 1268
f 646 329 648 647
f 43 42 738 1184
f 1290 1243 1323 478
f 574 704 981 274
f 897 898 343 899
f 733 761 82 81
f 1123 448 1297 1125
f 534 250 737 535
f 727 350 729 728
f 502 501 1080 286
f 819 818 1200 373
f 888 383 853 889
f 996 997 416 998
f 757 917 379 839
f 561 272 974 1027
f 200 673 336 676
f 102 709 956 101
f 757 534 294 755
f 708 959 407 957
f 572 306 702 574
f 910 912 25 913
f 949 948 1268 405
f 84 646 647 85
f 1185 1184 1262 1261
f 1143 1322 1324 450
f 77 727 728 78
f 413 981 704 979
f 874 387 898 897
f 730 351 761 733
f 1127 1126 1296 449
f 532 535 735 295
f 422 1080 501 1018
f 36 1200 818 37
f 887 889 182 183
f 995 996 204 205
f 294 534 535 532
f 755 357 917 757
f 951 954 206 207
f 1248 423 1027 1249
f 671 673 200 201
f 48 642 645 49
f 568 275 959 708
f 344 704 574 702
f 909 395 912 910
f 478 1323 1324 1322
f 1200 1199 822 373
f 909 910 396 907
f 786 858 383 888
f 503 286 1079 505
f 979 980 414 977
f 723 726 146 147
f 177 874 897 176
f 80 733 81 7
f 1065 437 1296 1126
f 295 735 736 734
f 531 530 533 296
f 917 916 844 379
f 950 406 954 951
f 357 755 756 754
f 1249 1250 335 1248
f 673 672 675 336
f 352 1262 1184 738
f 642 641 644 328
f 706 708 957 345
f 701 702 306 703
f 816 911 395 909
f 212 26 892 663
f 1199 851 278 822
f 908 817 372 907
f 785 244 858 786
f 439 1081 505 1079
f 976 413 979 977
f 722 349 726 723
f 100 101 896 787
f 149 17 136 720
f 1128 449 1295 1130
f 536 734 40 39
f 530 532 295 533
f 916 918 268 844
f 949 951 207 208
f 753 754 310 585
f 671 670 1248 335
f 672 674 263 675
f 935 256 1188 936
f 641 643 270 644
f 345 957 958 955
f 700 344 702 701
f 720 721 148 149
f 815 268 911 816
f 892 994 333 663
f 1198 382 851 1199
f 66 817 908 67
f 782 786 888 364
f 1022 1078 1080 422
f 896 894 365 787
f 265 976 977 978
f 721 723 147 148
f 721 720 760 348
f 731 1130 1114 258
f 533 295 734 536
f 529 294 532 530
f 915 397 918 916
f 952 953 406 950
f 76 749 356 752
f 670 1028 423 1248
f 335 672 673 671
f 907 372 816 909
f 891 392 994 892
f 894 893 791 365
f 68 67 975 715
f 724 725 349 722
f 446 1114 1130 1295
f 640 327 643 641
f 402 936 1188 1261
f 718 556 5 70
f 700 701 124 123
f 1199 1200 36 1198
f 155 156 906 804
f 364 888 889 887
f 1078 1079 286 1080
f 243 529 530 531
f 916 917 357 915
f 405 950 951 949
f 747 749 76 75
f 202 23 1028 670
f 670 671 201 202
f 1071 1294 1296 437
f 893 895 266 791
f 641 642 48 640
f 737 1260 1262 352
f 557 556 718 302
f 699 697 292 522
f 1077 439 1079 1078
f 780 887 183 184
f 994 993 667 333
f 852 1198 36 35
f 906 904 369 804
f 525 528 242 519
f 754 753 915 357
f 948 949 208 209
f 749 748 751 356
f 211 666 669 210
f 975 973 347 715
f 348 722 723 721
f 1294 1295 449 1296
f 809 808 905 267
f 891 391 895 893
f 694 696 292 697
f 639 640 48 47
f 402 1261 1262 1260
f 684 881 883 339
f 716 718 70 69
f 524 292 696 526
f 904 903 808 369
f 849 382 1198 852
f 779 364 887 780
f 993 961 264 667
f 18 1077 1078 1022
f 225 683 1016 30
f 753 914 397 915
f 524 293 528 525
f 748 750 251 751
f 221 944 947 222
f 665 667 264 668
f 893 894 392 891
f 1115 446 1295 1294
f 393 905 808 903
f 717 347 972 719
f 892 890 391 891
f 560 719 974 272
f 240 1115 1294 1071
f 903 904 394 901
f 889 853 181 182
f 411 974 719 972
f 971 970 973 412
f 1291 1292 270 1293
f 900 393 903 901
f 693 342 696 694
f 934 402 1260 937
f 881 882 390 883
f 719 560 302 717
f 527 526 698 269
f 245 693 694 695
f 190 635 326 638
f 250 937 1260 737
f 684 880 389 881
f 716 717 302 718
f 778 780 184 185
f 538 852 35 34
f 992 408 961 993
f 1074 1076 6 1024
f 683 1247 421 1016
f 523 525 519 290
f 355 748 749 747
f 944 943 946 404
f 664 333 667 665
f 970 972 347 973
f 1290 478 1292 1291
f 29 900 901 902
f 692 688 340 691
f 342 698 526 696
f 878 586 13 548
f 684 234 945 880
f 633 635 190 191
f 526 527 293 524
f 943 945 234 946
f 746 747 75 74
f 680 338 1247 683
f 339 883 886 689
f 1194 1196 20 1197
f 993 994 392 992
f 1073 438 1076 1074
f 969 411 972 970
f 1288 1291 1293 479
f 522 1 174 699
f 945 1259 389 880
f 635 634 637 326
f 877 311 586 878
f 715 347 717 716
f 688 687 690 340
f 695 694 697 343
f 1247 1246 1021 421
f 292 524 525 523
f 825 826 362 778
f 212 664 666 211
f 220 942 944 221
f 144 742 745 143
f 882 884 261 885
f 1193 461 1196 1194
f 837 237 859 838
f 894 896 992 392
f 1072 1074 1024 424
f 263 969 970 971
f 1241 1243 1290 472
f 697 699 899 343
f 943 403 1259 945
f 634 636 271 637
f 687 689 246 690
f 876 878 548 299
f 715 716 69 68
f 866 867 341 865
f 553 1021 966 273
f 516 515 523 290
f 296 821 824 531
f 664 665 334 666
f 741 743 252 744
f 403 943 944 942
f 409 966 1021 1246
f 881 389 884 882
f 1191 1194 1197 462
f 856 378 838 857
f 513 1075 438 1073
f 955 408 992 956
f 965 967 262 968
f 175 899 699 174
f 472 1290 1291 1288
f 1259 1258 884 389
f 325 634 635 633
f 685 339 689 687
f 711 346 714 712
f 879 590 311 877
f 688 692 865 341
f 1246 1247 338 1245
f 515 522 292 523
f 821 820 823 374
f 212 663 333 664
f 740 353 743 741
f 219 941 942 220
f 376 830 1195 1193
f 384 857 838 859
f 510 513 1073 289
f 101 956 992 896
f 964 409 967 965
f 873 695 343 898
f 1244 1288 479 1289
f 632 633 191 192
f 687 688 341 685
f 158 712 714 157
f 388 877 878 876
f 692 785 363 865
f 766 237 837 764
f 967 409 1246 1245
f 820 822 278 823
f 31 1 522 515
f 214 659 662 215
f 991 982 122 594
f 376 1193 1194 1191
f 832 378 856 833
f 811 812 65 64
f 289 1073 1074 1072
f 770 245 695 873
f 962 965 968 410
f 1242 472 1288 1244
f 848 849 298 847
f 631 627 323 630
f 301 554 713 711
f 875 876 299 547
f 691 244 785 692
f 686 684 339 685
f 765 764 940 358
f 679 682 1245 338
f 819 373 822 820
f 33 518 291 521
f 659 658 661 332
f 514 1072 424 1029
f 980 982 991 414
f 831 1191 462 1192
f 856 858 244 833
f 154 807 810 153
f 871 873 898 387
f 1222 1244 1289 260
f 713 966 409 964
f 179 862 864 178
f 224 680 683 225
f 159 710 712 158
f 178 864 874 177
f 540 543 847 298
f 627 626 629 323
f 377 940 764 837
f 262 967 1245 682
f 820 821 296 819
f 516 518 33 32
f 658 660 265 661
f 807 806 809 370
f 511 289 1072 514
f 989 991 594 314
f 828 376 1191 831
f 854 383 858 856
f 462 1285 1287 1192
f 862 861 863 385
f 679 681 262 682
f 301 711 712 710
f 864 872 387 874
f 626 628 239 629
f 543 846 381 847
f 657 331 660 658
f 818 819 296 537
f 518 517 520 291
f 940 939 769 358
f 467 1242 1244 1222
f 658 659 214 657
f 813 372 817 814
f 290 519 520 517
f 977 414 990 978
f 369 808 809 806
f 783 831 1192 253
f 856 857 384 854
f 193 514 1029 23
f 1285 1284 1286 477
f 678 337 681 679
f 861 859 237 863
f 552 301 710 555
f 862 385 872 864
f 624 322 628 626
f 542 241 846 543
f 656 657 214 213
f 65 814 817 66
f 290 517 518 516
f 939 930 247 769
f 806 807 154 805
f 437 1067 1070 1071
f 44 1187 1190 45
f 855 853 383 854
f 1284 809 267 1286
f 794 795 89 90
f 787 788 99 100
f 19 555 710 159
f 860 384 859 861
f 64 4 845 811
f 626 627 324 624
f 653 655 139 140
f 815 816 372 813
f 515 516 32 31
f 938 400 930 939
f 804 369 806 805
f 1187 1186 1189 460
f 298 849 852 538
f 1283 370 809 1284
f 99 790 793 98
f 786 782 363 785
f 706 345 709 707
f 834 377 837 835
f 861 862 179 860
f 15 630 799 129
f 845 843 371 811
f 625 623 322 624
f 359 770 873 871
f 103 707 709 102
f 378 835 837 838
f 652 330 655 653
f 813 814 65 812
f 194 511 514 193
f 939 940 377 938
f 804 805 154 155
f 1186 1188 256 1189
f 849 848 851 382
f 1284 1285 462 1283
f 790 789 792 366
f 782 781 784 363
f 813 371 842 815
f 855 860 179 180
f 797 614 9 88
f 305 568 708 706
f 863 870 872 385
f 340 690 836 834
f 842 844 268 815
f 854 384 860 855
f 796 319 614 797
f 104 705 707 103
f 870 871 387 872
f 834 835 378 832
f 840 379 844 842
f 622 618 320 621
f 853 855 180 181
f 795 797 88 89
f 305 706 707 705
f 766 359 871 870
f 691 340 834 832
f 811 371 813 812
f 510 512 279 513
f 834 836 938 377
f 130 801 803 131
f 848 850 278 851
f 1185 1261 1188 1186
f 810 1283 462 1197
f 365 791 792 789
f 781 783 253 784
f 841 840 843 380
f 618 617 620 320
f 566 305 705 569
f 237 766 870 863
f 798 619 319 796
f 244 691 832 833
f 840 842 371 843
f 617 619 240 620
f 10 569 705 104
f 684 686 869 234
f 841 839 379 840
f 615 319 619 617
f 367 796 797 795
f 362 828 831 783
f 509 288 512 510
f 836 926 400 938
f 323 629 802 800
f 847 381 850 848
f 1186 1187 44 1185
f 807 370 1283 810
f 789 790 99 788
f 779 362 783 781
f 828 827 830 376
f 703 570 14 125
f 686 867 386 869
f 617 618 321 615
f 690 246 926 836
f 195 509 511 194
f 1184 1185 44 43
f 129 799 801 130
f 781 782 364 779
f 787 365 789 788
f 685 341 867 686
f 616 614 319 615
f 827 829 254 830
f 839 841 937 250
f 780 778 362 779
f 778 185 186 825
f 799 800 368 801
f 826 375 829 827
f 867 866 868 386
f 134 610 613 135
f 380 934 937 841
f 579 243 777 577
f 630 323 800 799
f 826 825 1182 375
f 827 828 362 826
f 866 784 253 868
f 317 611 612 609
f 934 933 936 402
f 578 577 775 308
f 187 1182 825 186
f 865 363 784 866
f 133 608 610 134
f 401 935 936 933
f 361 775 577 777
f 1182 1181 829 375
f 608 609 318 610
f 933 934 380 932
f 775 774 582 308
f 1181 1183 254 829
f 607 317 609 608
f 931 401 933 932
f 188 1180 1182 187
f 843 845 932 380
f 459 1181 1182 1180
f 4 931 932 845
f 188 1179 459 1180
f 547 247 930 875
f 876 875 928 388
f 400 928 875 930
# </faces>
